<svg width="1784"  height="1403" viewBox="0 0 1784 1403" fill="none" xmlns="http://www.w3.org/2000/svg">
<g clip-path="url(#clip0_136_41)">
<path d="M104.941 -66.1765H0V38.7647H104.941V-66.1765Z" stroke="#914AD2" stroke-opacity="0.1" stroke-width="0.5"/>
<path d="M209.883 -66.1765H104.941V38.7647H209.883V-66.1765Z" stroke="#914AD2" stroke-opacity="0.1" stroke-width="0.5"/>
<path d="M314.824 -66.1765H209.882V38.7647H314.824V-66.1765Z" stroke="#914AD2" stroke-opacity="0.1" stroke-width="0.5"/>
<path d="M419.765 -66.1765H314.824V38.7647H419.765V-66.1765Z" stroke="#914AD2" stroke-opacity="0.1" stroke-width="0.5"/>
<path d="M524.706 -66.1765H419.765V38.7647H524.706V-66.1765Z" stroke="#914AD2" stroke-opacity="0.1" stroke-width="0.5"/>
<path d="M629.647 -66.1765H524.706V38.7647H629.647V-66.1765Z" stroke="#914AD2" stroke-opacity="0.1" stroke-width="0.5"/>
<path d="M734.588 -66.1765H629.647V38.7647H734.588V-66.1765Z" stroke="#914AD2" stroke-opacity="0.1" stroke-width="0.5"/>
<path d="M839.53 -66.1765H734.588V38.7647H839.53V-66.1765Z" stroke="#914AD2" stroke-opacity="0.1" stroke-width="0.5"/>
<path d="M944.471 -66.1765H839.529V38.7647H944.471V-66.1765Z" stroke="#914AD2" stroke-opacity="0.1" stroke-width="0.5"/>
<path d="M1049.41 -66.1765H944.471V38.7647H1049.41V-66.1765Z" stroke="#914AD2" stroke-opacity="0.1" stroke-width="0.5"/>
<path d="M1154.35 -66.1765H1049.41V38.7647H1154.35V-66.1765Z" stroke="#914AD2" stroke-opacity="0.1" stroke-width="0.5"/>
<path d="M1259.29 -66.1765H1154.35V38.7647H1259.29V-66.1765Z" stroke="#914AD2" stroke-opacity="0.1" stroke-width="0.5"/>
<path d="M1364.24 -66.1765H1259.29V38.7647H1364.24V-66.1765Z" stroke="#914AD2" stroke-opacity="0.1" stroke-width="0.5"/>
<path d="M1469.18 -66.1765H1364.24V38.7647H1469.18V-66.1765Z" stroke="#914AD2" stroke-opacity="0.1" stroke-width="0.5"/>
<path d="M1574.12 -66.1765H1469.18V38.7647H1574.12V-66.1765Z" stroke="#914AD2" stroke-opacity="0.1" stroke-width="0.5"/>
<path d="M1679.06 -66.1765H1574.12V38.7647H1679.06V-66.1765Z" stroke="#914AD2" stroke-opacity="0.1" stroke-width="0.5"/>
<path d="M1784 -66.1765H1679.06V38.7647H1784V-66.1765Z" stroke="#914AD2" stroke-opacity="0.1" stroke-width="0.5"/>
<path d="M1888.94 -66.1765H1784V38.7647H1888.94V-66.1765Z" stroke="#914AD2" stroke-opacity="0.1" stroke-width="0.5"/>
<path d="M104.941 38.7646H0V143.706H104.941V38.7646Z" stroke="#914AD2" stroke-opacity="0.1" stroke-width="0.5"/>
<path d="M209.883 38.7646H104.941V143.706H209.883V38.7646Z" stroke="#914AD2" stroke-opacity="0.1" stroke-width="0.5"/>
<path d="M314.824 38.7646H209.882V143.706H314.824V38.7646Z" stroke="#914AD2" stroke-opacity="0.1" stroke-width="0.5"/>
<path d="M419.765 38.7646H314.824V143.706H419.765V38.7646Z" stroke="#914AD2" stroke-opacity="0.1" stroke-width="0.5"/>
<path d="M524.706 38.7646H419.765V143.706H524.706V38.7646Z" stroke="#914AD2" stroke-opacity="0.1" stroke-width="0.5"/>
<path d="M629.647 38.7646H524.706V143.706H629.647V38.7646Z" stroke="#914AD2" stroke-opacity="0.1" stroke-width="0.5"/>
<path d="M734.588 38.7646H629.647V143.706H734.588V38.7646Z" stroke="#914AD2" stroke-opacity="0.1" stroke-width="0.5"/>
<path d="M839.53 38.7646H734.588V143.706H839.53V38.7646Z" stroke="#914AD2" stroke-opacity="0.1" stroke-width="0.5"/>
<path d="M944.471 38.7646H839.529V143.706H944.471V38.7646Z" stroke="#914AD2" stroke-opacity="0.1" stroke-width="0.5"/>
<path d="M1049.41 38.7646H944.471V143.706H1049.41V38.7646Z" stroke="#914AD2" stroke-opacity="0.1" stroke-width="0.5"/>
<path d="M1154.35 38.7646H1049.41V143.706H1154.35V38.7646Z" stroke="#914AD2" stroke-opacity="0.1" stroke-width="0.5"/>
<path d="M1259.29 38.7646H1154.35V143.706H1259.29V38.7646Z" stroke="#914AD2" stroke-opacity="0.1" stroke-width="0.5"/>
<path d="M1364.24 38.7646H1259.29V143.706H1364.24V38.7646Z" stroke="#914AD2" stroke-opacity="0.1" stroke-width="0.5"/>
<path d="M1469.18 38.7646H1364.24V143.706H1469.18V38.7646Z" stroke="#914AD2" stroke-opacity="0.1" stroke-width="0.5"/>
<path d="M1574.12 38.7646H1469.18V143.706H1574.12V38.7646Z" stroke="#914AD2" stroke-opacity="0.1" stroke-width="0.5"/>
<path d="M1679.06 38.7646H1574.12V143.706H1679.06V38.7646Z" stroke="#914AD2" stroke-opacity="0.1" stroke-width="0.5"/>
<path d="M1784 38.7646H1679.06V143.706H1784V38.7646Z" stroke="#914AD2" stroke-opacity="0.1" stroke-width="0.5"/>
<path d="M1888.94 38.7646H1784V143.706H1888.94V38.7646Z" stroke="#914AD2" stroke-opacity="0.1" stroke-width="0.5"/>
<path d="M104.941 143.706H0V248.647H104.941V143.706Z" stroke="#914AD2" stroke-opacity="0.1" stroke-width="0.5"/>
<path d="M209.883 143.706H104.941V248.647H209.883V143.706Z" stroke="#914AD2" stroke-opacity="0.1" stroke-width="0.5"/>
<path d="M314.824 143.706H209.882V248.647H314.824V143.706Z" stroke="#914AD2" stroke-opacity="0.1" stroke-width="0.5"/>
<path d="M419.765 143.706H314.824V248.647H419.765V143.706Z" stroke="#914AD2" stroke-opacity="0.1" stroke-width="0.5"/>
<path d="M524.706 143.706H419.765V248.647H524.706V143.706Z" stroke="#914AD2" stroke-opacity="0.1" stroke-width="0.5"/>
<path d="M629.647 143.706H524.706V248.647H629.647V143.706Z" stroke="#914AD2" stroke-opacity="0.1" stroke-width="0.5"/>
<path d="M734.588 143.706H629.647V248.647H734.588V143.706Z" stroke="#914AD2" stroke-opacity="0.1" stroke-width="0.5"/>
<path d="M839.53 143.706H734.588V248.647H839.53V143.706Z" stroke="#914AD2" stroke-opacity="0.1" stroke-width="0.5"/>
<path d="M944.471 143.706H839.529V248.647H944.471V143.706Z" stroke="#914AD2" stroke-opacity="0.1" stroke-width="0.5"/>
<path d="M1049.41 143.706H944.471V248.647H1049.41V143.706Z" stroke="#914AD2" stroke-opacity="0.1" stroke-width="0.5"/>
<path d="M1154.35 143.706H1049.41V248.647H1154.35V143.706Z" stroke="#914AD2" stroke-opacity="0.1" stroke-width="0.5"/>
<path d="M1259.29 143.706H1154.35V248.647H1259.29V143.706Z" stroke="#914AD2" stroke-opacity="0.1" stroke-width="0.5"/>
<path d="M1364.24 143.706H1259.29V248.647H1364.24V143.706Z" stroke="#914AD2" stroke-opacity="0.1" stroke-width="0.5"/>
<path d="M1469.18 143.706H1364.24V248.647H1469.18V143.706Z" stroke="#914AD2" stroke-opacity="0.1" stroke-width="0.5"/>
<path d="M1574.12 143.706H1469.18V248.647H1574.12V143.706Z" stroke="#914AD2" stroke-opacity="0.1" stroke-width="0.5"/>
<path d="M1679.06 143.706H1574.12V248.647H1679.06V143.706Z" stroke="#914AD2" stroke-opacity="0.1" stroke-width="0.5"/>
<path d="M1784 143.706H1679.06V248.647H1784V143.706Z" stroke="#914AD2" stroke-opacity="0.1" stroke-width="0.5"/>
<path d="M1888.94 143.706H1784V248.647H1888.94V143.706Z" stroke="#914AD2" stroke-opacity="0.1" stroke-width="0.5"/>
<path d="M104.941 248.647H0V353.588H104.941V248.647Z" stroke="#914AD2" stroke-opacity="0.1" stroke-width="0.5"/>
<path d="M209.883 248.647H104.941V353.588H209.883V248.647Z" stroke="#914AD2" stroke-opacity="0.1" stroke-width="0.5"/>
<path d="M314.824 248.647H209.882V353.588H314.824V248.647Z" stroke="#914AD2" stroke-opacity="0.1" stroke-width="0.5"/>
<path d="M419.765 248.647H314.824V353.588H419.765V248.647Z" stroke="#914AD2" stroke-opacity="0.1" stroke-width="0.5"/>
<path d="M524.706 248.647H419.765V353.588H524.706V248.647Z" stroke="#914AD2" stroke-opacity="0.1" stroke-width="0.5"/>
<path d="M629.647 248.647H524.706V353.588H629.647V248.647Z" stroke="#914AD2" stroke-opacity="0.1" stroke-width="0.5"/>
<path d="M734.588 248.647H629.647V353.588H734.588V248.647Z" stroke="#914AD2" stroke-opacity="0.1" stroke-width="0.5"/>
<path d="M839.53 248.647H734.588V353.588H839.53V248.647Z" stroke="#914AD2" stroke-opacity="0.1" stroke-width="0.5"/>
<path d="M944.471 248.647H839.529V353.588H944.471V248.647Z" stroke="#914AD2" stroke-opacity="0.1" stroke-width="0.5"/>
<path d="M1049.41 248.647H944.471V353.588H1049.41V248.647Z" stroke="#914AD2" stroke-opacity="0.1" stroke-width="0.5"/>
<path d="M1154.35 248.647H1049.41V353.588H1154.35V248.647Z" stroke="#914AD2" stroke-opacity="0.1" stroke-width="0.5"/>
<path d="M1259.29 248.647H1154.35V353.588H1259.29V248.647Z" stroke="#914AD2" stroke-opacity="0.1" stroke-width="0.5"/>
<path d="M1364.24 248.647H1259.29V353.588H1364.24V248.647Z" stroke="#914AD2" stroke-opacity="0.1" stroke-width="0.5"/>
<path d="M1469.18 248.647H1364.24V353.588H1469.18V248.647Z" stroke="#914AD2" stroke-opacity="0.1" stroke-width="0.5"/>
<path d="M1574.12 248.647H1469.18V353.588H1574.12V248.647Z" stroke="#914AD2" stroke-opacity="0.1" stroke-width="0.5"/>
<path d="M1679.06 248.647H1574.12V353.588H1679.06V248.647Z" stroke="#914AD2" stroke-opacity="0.1" stroke-width="0.5"/>
<path d="M1784 248.647H1679.06V353.588H1784V248.647Z" stroke="#914AD2" stroke-opacity="0.1" stroke-width="0.5"/>
<path d="M1888.94 248.647H1784V353.588H1888.94V248.647Z" stroke="#914AD2" stroke-opacity="0.1" stroke-width="0.5"/>
<path d="M104.941 353.588H0V458.53H104.941V353.588Z" stroke="#914AD2" stroke-opacity="0.1" stroke-width="0.5"/>
<path d="M209.883 353.588H104.941V458.53H209.883V353.588Z" stroke="#914AD2" stroke-opacity="0.1" stroke-width="0.5"/>
<path d="M314.824 353.588H209.882V458.53H314.824V353.588Z" stroke="#914AD2" stroke-opacity="0.1" stroke-width="0.5"/>
<path d="M419.765 353.588H314.824V458.53H419.765V353.588Z" stroke="#914AD2" stroke-opacity="0.1" stroke-width="0.5"/>
<path d="M524.706 353.588H419.765V458.53H524.706V353.588Z" stroke="#914AD2" stroke-opacity="0.1" stroke-width="0.5"/>
<path d="M629.647 353.588H524.706V458.53H629.647V353.588Z" stroke="#914AD2" stroke-opacity="0.1" stroke-width="0.5"/>
<path d="M734.588 353.588H629.647V458.53H734.588V353.588Z" stroke="#914AD2" stroke-opacity="0.1" stroke-width="0.5"/>
<path d="M839.53 353.588H734.588V458.53H839.53V353.588Z" stroke="#914AD2" stroke-opacity="0.1" stroke-width="0.5"/>
<path d="M944.471 353.588H839.529V458.53H944.471V353.588Z" stroke="#914AD2" stroke-opacity="0.1" stroke-width="0.5"/>
<path d="M1049.41 353.588H944.471V458.53H1049.41V353.588Z" stroke="#914AD2" stroke-opacity="0.1" stroke-width="0.5"/>
<path d="M1154.35 353.588H1049.41V458.53H1154.35V353.588Z" stroke="#914AD2" stroke-opacity="0.1" stroke-width="0.5"/>
<path d="M1259.29 353.588H1154.35V458.53H1259.29V353.588Z" stroke="#914AD2" stroke-opacity="0.1" stroke-width="0.5"/>
<path d="M1364.24 353.588H1259.29V458.53H1364.24V353.588Z" stroke="#914AD2" stroke-opacity="0.1" stroke-width="0.5"/>
<path d="M1469.18 353.588H1364.24V458.53H1469.18V353.588Z" stroke="#914AD2" stroke-opacity="0.1" stroke-width="0.5"/>
<path d="M1574.12 353.588H1469.18V458.53H1574.12V353.588Z" stroke="#914AD2" stroke-opacity="0.1" stroke-width="0.5"/>
<path d="M1679.06 353.588H1574.12V458.53H1679.06V353.588Z" stroke="#914AD2" stroke-opacity="0.1" stroke-width="0.5"/>
<path d="M1784 353.588H1679.06V458.53H1784V353.588Z" stroke="#914AD2" stroke-opacity="0.1" stroke-width="0.5"/>
<path d="M1888.94 353.588H1784V458.53H1888.94V353.588Z" stroke="#914AD2" stroke-opacity="0.1" stroke-width="0.5"/>
<path d="M104.941 458.529H0V563.471H104.941V458.529Z" stroke="#914AD2" stroke-opacity="0.1" stroke-width="0.5"/>
<path d="M209.883 458.529H104.941V563.471H209.883V458.529Z" stroke="#914AD2" stroke-opacity="0.1" stroke-width="0.5"/>
<path d="M314.824 458.529H209.882V563.471H314.824V458.529Z" stroke="#914AD2" stroke-opacity="0.1" stroke-width="0.5"/>
<path d="M419.765 458.529H314.824V563.471H419.765V458.529Z" stroke="#914AD2" stroke-opacity="0.1" stroke-width="0.5"/>
<path d="M524.706 458.529H419.765V563.471H524.706V458.529Z" stroke="#914AD2" stroke-opacity="0.1" stroke-width="0.5"/>
<path d="M629.647 458.529H524.706V563.471H629.647V458.529Z" stroke="#914AD2" stroke-opacity="0.1" stroke-width="0.5"/>
<path d="M734.588 458.529H629.647V563.471H734.588V458.529Z" stroke="#914AD2" stroke-opacity="0.1" stroke-width="0.5"/>
<path d="M839.53 458.529H734.588V563.471H839.53V458.529Z" stroke="#914AD2" stroke-opacity="0.1" stroke-width="0.5"/>
<path d="M944.471 458.529H839.529V563.471H944.471V458.529Z" stroke="#914AD2" stroke-opacity="0.1" stroke-width="0.5"/>
<path d="M1049.41 458.529H944.471V563.471H1049.41V458.529Z" stroke="#914AD2" stroke-opacity="0.1" stroke-width="0.5"/>
<path d="M1154.35 458.529H1049.41V563.471H1154.35V458.529Z" stroke="#914AD2" stroke-opacity="0.1" stroke-width="0.5"/>
<path d="M1259.29 458.529H1154.35V563.471H1259.29V458.529Z" stroke="#914AD2" stroke-opacity="0.1" stroke-width="0.5"/>
<path d="M1364.24 458.529H1259.29V563.471H1364.24V458.529Z" stroke="#914AD2" stroke-opacity="0.1" stroke-width="0.5"/>
<path d="M1469.18 458.529H1364.24V563.471H1469.18V458.529Z" stroke="#914AD2" stroke-opacity="0.1" stroke-width="0.5"/>
<path d="M1574.12 458.529H1469.18V563.471H1574.12V458.529Z" stroke="#914AD2" stroke-opacity="0.1" stroke-width="0.5"/>
<path d="M1679.06 458.529H1574.12V563.471H1679.06V458.529Z" stroke="#914AD2" stroke-opacity="0.1" stroke-width="0.5"/>
<path d="M1784 458.529H1679.06V563.471H1784V458.529Z" stroke="#914AD2" stroke-opacity="0.1" stroke-width="0.5"/>
<path d="M1888.94 458.529H1784V563.471H1888.94V458.529Z" stroke="#914AD2" stroke-opacity="0.1" stroke-width="0.5"/>
<path d="M104.941 563.471H0V668.412H104.941V563.471Z" stroke="#914AD2" stroke-opacity="0.1" stroke-width="0.5"/>
<path d="M209.883 563.471H104.941V668.412H209.883V563.471Z" stroke="#914AD2" stroke-opacity="0.1" stroke-width="0.5"/>
<path d="M314.824 563.471H209.882V668.412H314.824V563.471Z" stroke="#914AD2" stroke-opacity="0.1" stroke-width="0.5"/>
<path d="M419.765 563.471H314.824V668.412H419.765V563.471Z" stroke="#914AD2" stroke-opacity="0.1" stroke-width="0.5"/>
<path d="M524.706 563.471H419.765V668.412H524.706V563.471Z" stroke="#914AD2" stroke-opacity="0.1" stroke-width="0.5"/>
<path d="M629.647 563.471H524.706V668.412H629.647V563.471Z" stroke="#914AD2" stroke-opacity="0.1" stroke-width="0.5"/>
<path d="M734.588 563.471H629.647V668.412H734.588V563.471Z" stroke="#914AD2" stroke-opacity="0.1" stroke-width="0.5"/>
<path d="M839.53 563.471H734.588V668.412H839.53V563.471Z" stroke="#914AD2" stroke-opacity="0.1" stroke-width="0.5"/>
<path d="M944.471 563.471H839.529V668.412H944.471V563.471Z" stroke="#914AD2" stroke-opacity="0.1" stroke-width="0.5"/>
<path d="M1049.41 563.471H944.471V668.412H1049.41V563.471Z" stroke="#914AD2" stroke-opacity="0.1" stroke-width="0.5"/>
<path d="M1154.35 563.471H1049.41V668.412H1154.35V563.471Z" stroke="#914AD2" stroke-opacity="0.1" stroke-width="0.5"/>
<path d="M1259.29 563.471H1154.35V668.412H1259.29V563.471Z" stroke="#914AD2" stroke-opacity="0.1" stroke-width="0.5"/>
<path d="M1364.24 563.471H1259.29V668.412H1364.24V563.471Z" stroke="#914AD2" stroke-opacity="0.1" stroke-width="0.5"/>
<path d="M1469.18 563.471H1364.24V668.412H1469.18V563.471Z" stroke="#914AD2" stroke-opacity="0.1" stroke-width="0.5"/>
<path d="M1574.12 563.471H1469.18V668.412H1574.12V563.471Z" stroke="#914AD2" stroke-opacity="0.1" stroke-width="0.5"/>
<path d="M1679.06 563.471H1574.12V668.412H1679.06V563.471Z" stroke="#914AD2" stroke-opacity="0.1" stroke-width="0.5"/>
<path d="M1784 563.471H1679.06V668.412H1784V563.471Z" stroke="#914AD2" stroke-opacity="0.1" stroke-width="0.5"/>
<path d="M1888.94 563.471H1784V668.412H1888.94V563.471Z" stroke="#914AD2" stroke-opacity="0.1" stroke-width="0.5"/>
<path d="M104.941 668.412H0V773.353H104.941V668.412Z" stroke="#914AD2" stroke-opacity="0.1" stroke-width="0.5"/>
<path d="M209.883 668.412H104.941V773.353H209.883V668.412Z" stroke="#914AD2" stroke-opacity="0.1" stroke-width="0.5"/>
<path d="M314.824 668.412H209.882V773.353H314.824V668.412Z" stroke="#914AD2" stroke-opacity="0.1" stroke-width="0.5"/>
<path d="M419.765 668.412H314.824V773.353H419.765V668.412Z" stroke="#914AD2" stroke-opacity="0.1" stroke-width="0.5"/>
<path d="M524.706 668.412H419.765V773.353H524.706V668.412Z" stroke="#914AD2" stroke-opacity="0.1" stroke-width="0.5"/>
<path d="M629.647 668.412H524.706V773.353H629.647V668.412Z" stroke="#914AD2" stroke-opacity="0.1" stroke-width="0.5"/>
<path d="M734.588 668.412H629.647V773.353H734.588V668.412Z" stroke="#914AD2" stroke-opacity="0.1" stroke-width="0.5"/>
<path d="M839.53 668.412H734.588V773.353H839.53V668.412Z" stroke="#914AD2" stroke-opacity="0.1" stroke-width="0.5"/>
<path d="M944.471 668.412H839.529V773.353H944.471V668.412Z" stroke="#914AD2" stroke-opacity="0.1" stroke-width="0.5"/>
<path d="M1049.41 668.412H944.471V773.353H1049.41V668.412Z" stroke="#914AD2" stroke-opacity="0.1" stroke-width="0.5"/>
<path d="M1154.35 668.412H1049.41V773.353H1154.35V668.412Z" stroke="#914AD2" stroke-opacity="0.1" stroke-width="0.5"/>
<path d="M1259.29 668.412H1154.35V773.353H1259.29V668.412Z" stroke="#914AD2" stroke-opacity="0.1" stroke-width="0.5"/>
<path d="M1364.24 668.412H1259.29V773.353H1364.24V668.412Z" stroke="#914AD2" stroke-opacity="0.1" stroke-width="0.5"/>
<path d="M1469.18 668.412H1364.24V773.353H1469.18V668.412Z" stroke="#914AD2" stroke-opacity="0.1" stroke-width="0.5"/>
<path d="M1574.12 668.412H1469.18V773.353H1574.12V668.412Z" stroke="#914AD2" stroke-opacity="0.1" stroke-width="0.5"/>
<path d="M1679.06 668.412H1574.12V773.353H1679.06V668.412Z" stroke="#914AD2" stroke-opacity="0.1" stroke-width="0.5"/>
<path d="M1784 668.412H1679.06V773.353H1784V668.412Z" stroke="#914AD2" stroke-opacity="0.1" stroke-width="0.5"/>
<path d="M1888.94 668.412H1784V773.353H1888.94V668.412Z" stroke="#914AD2" stroke-opacity="0.1" stroke-width="0.5"/>
<path d="M104.941 773.353H0V878.294H104.941V773.353Z" stroke="#914AD2" stroke-opacity="0.1" stroke-width="0.5"/>
<path d="M209.883 773.353H104.941V878.294H209.883V773.353Z" stroke="#914AD2" stroke-opacity="0.1" stroke-width="0.5"/>
<path d="M314.824 773.353H209.882V878.294H314.824V773.353Z" stroke="#914AD2" stroke-opacity="0.1" stroke-width="0.5"/>
<path d="M419.765 773.353H314.824V878.294H419.765V773.353Z" stroke="#914AD2" stroke-opacity="0.1" stroke-width="0.5"/>
<path d="M524.706 773.353H419.765V878.294H524.706V773.353Z" stroke="#914AD2" stroke-opacity="0.1" stroke-width="0.5"/>
<path d="M629.647 773.353H524.706V878.294H629.647V773.353Z" stroke="#914AD2" stroke-opacity="0.1" stroke-width="0.5"/>
<path d="M734.588 773.353H629.647V878.294H734.588V773.353Z" stroke="#914AD2" stroke-opacity="0.1" stroke-width="0.5"/>
<path d="M839.53 773.353H734.588V878.294H839.53V773.353Z" stroke="#914AD2" stroke-opacity="0.1" stroke-width="0.5"/>
<path d="M944.471 773.353H839.529V878.294H944.471V773.353Z" stroke="#914AD2" stroke-opacity="0.1" stroke-width="0.5"/>
<path d="M1049.41 773.353H944.471V878.294H1049.41V773.353Z" stroke="#914AD2" stroke-opacity="0.1" stroke-width="0.5"/>
<path d="M1154.35 773.353H1049.41V878.294H1154.35V773.353Z" stroke="#914AD2" stroke-opacity="0.1" stroke-width="0.5"/>
<path d="M1259.29 773.353H1154.35V878.294H1259.29V773.353Z" stroke="#914AD2" stroke-opacity="0.1" stroke-width="0.5"/>
<path d="M1364.24 773.353H1259.29V878.294H1364.24V773.353Z" stroke="#914AD2" stroke-opacity="0.1" stroke-width="0.5"/>
<path d="M1469.18 773.353H1364.24V878.294H1469.18V773.353Z" stroke="#914AD2" stroke-opacity="0.1" stroke-width="0.5"/>
<path d="M1574.12 773.353H1469.18V878.294H1574.12V773.353Z" stroke="#914AD2" stroke-opacity="0.1" stroke-width="0.5"/>
<path d="M1679.06 773.353H1574.12V878.294H1679.06V773.353Z" stroke="#914AD2" stroke-opacity="0.1" stroke-width="0.5"/>
<path d="M1784 773.353H1679.06V878.294H1784V773.353Z" stroke="#914AD2" stroke-opacity="0.1" stroke-width="0.5"/>
<path d="M1888.94 773.353H1784V878.294H1888.94V773.353Z" stroke="#914AD2" stroke-opacity="0.1" stroke-width="0.5"/>
<path d="M104.941 878.294H0V983.235H104.941V878.294Z" stroke="#914AD2" stroke-opacity="0.1" stroke-width="0.5"/>
<path d="M209.883 878.294H104.941V983.235H209.883V878.294Z" stroke="#914AD2" stroke-opacity="0.1" stroke-width="0.5"/>
<path d="M314.824 878.294H209.882V983.235H314.824V878.294Z" stroke="#914AD2" stroke-opacity="0.1" stroke-width="0.5"/>
<path d="M419.765 878.294H314.824V983.235H419.765V878.294Z" stroke="#914AD2" stroke-opacity="0.1" stroke-width="0.5"/>
<path d="M524.706 878.294H419.765V983.235H524.706V878.294Z" stroke="#914AD2" stroke-opacity="0.1" stroke-width="0.5"/>
<path d="M629.647 878.294H524.706V983.235H629.647V878.294Z" stroke="#914AD2" stroke-opacity="0.1" stroke-width="0.5"/>
<path d="M734.588 878.294H629.647V983.235H734.588V878.294Z" stroke="#914AD2" stroke-opacity="0.1" stroke-width="0.5"/>
<path d="M839.53 878.294H734.588V983.235H839.53V878.294Z" stroke="#914AD2" stroke-opacity="0.1" stroke-width="0.5"/>
<path d="M944.471 878.294H839.529V983.235H944.471V878.294Z" stroke="#914AD2" stroke-opacity="0.1" stroke-width="0.5"/>
<path d="M1049.41 878.294H944.471V983.235H1049.41V878.294Z" stroke="#914AD2" stroke-opacity="0.1" stroke-width="0.5"/>
<path d="M1154.35 878.294H1049.41V983.235H1154.35V878.294Z" stroke="#914AD2" stroke-opacity="0.1" stroke-width="0.5"/>
<path d="M1259.29 878.294H1154.35V983.235H1259.29V878.294Z" stroke="#914AD2" stroke-opacity="0.1" stroke-width="0.5"/>
<path d="M1364.24 878.294H1259.29V983.235H1364.24V878.294Z" stroke="#914AD2" stroke-opacity="0.1" stroke-width="0.5"/>
<path d="M1469.18 878.294H1364.24V983.235H1469.18V878.294Z" stroke="#914AD2" stroke-opacity="0.1" stroke-width="0.5"/>
<path d="M1574.12 878.294H1469.18V983.235H1574.12V878.294Z" stroke="#914AD2" stroke-opacity="0.1" stroke-width="0.5"/>
<path d="M1679.06 878.294H1574.12V983.235H1679.06V878.294Z" stroke="#914AD2" stroke-opacity="0.1" stroke-width="0.5"/>
<path d="M1784 878.294H1679.06V983.235H1784V878.294Z" stroke="#914AD2" stroke-opacity="0.1" stroke-width="0.5"/>
<path d="M1888.94 878.294H1784V983.235H1888.94V878.294Z" stroke="#914AD2" stroke-opacity="0.1" stroke-width="0.5"/>
<path d="M104.941 983.235H0V1088.18H104.941V983.235Z" stroke="#914AD2" stroke-opacity="0.1" stroke-width="0.5"/>
<path d="M209.883 983.235H104.941V1088.18H209.883V983.235Z" stroke="#914AD2" stroke-opacity="0.1" stroke-width="0.5"/>
<path d="M314.824 983.235H209.882V1088.18H314.824V983.235Z" stroke="#914AD2" stroke-opacity="0.1" stroke-width="0.5"/>
<path d="M419.765 983.235H314.824V1088.18H419.765V983.235Z" stroke="#914AD2" stroke-opacity="0.1" stroke-width="0.5"/>
<path d="M524.706 983.235H419.765V1088.18H524.706V983.235Z" stroke="#914AD2" stroke-opacity="0.1" stroke-width="0.5"/>
<path d="M629.647 983.235H524.706V1088.18H629.647V983.235Z" stroke="#914AD2" stroke-opacity="0.1" stroke-width="0.5"/>
<path d="M734.588 983.235H629.647V1088.18H734.588V983.235Z" stroke="#914AD2" stroke-opacity="0.1" stroke-width="0.5"/>
<path d="M839.53 983.235H734.588V1088.18H839.53V983.235Z" stroke="#914AD2" stroke-opacity="0.1" stroke-width="0.5"/>
<path d="M944.471 983.235H839.529V1088.18H944.471V983.235Z" stroke="#914AD2" stroke-opacity="0.1" stroke-width="0.5"/>
<path d="M1049.41 983.235H944.471V1088.18H1049.41V983.235Z" stroke="#914AD2" stroke-opacity="0.1" stroke-width="0.5"/>
<path d="M1154.35 983.235H1049.41V1088.18H1154.35V983.235Z" stroke="#914AD2" stroke-opacity="0.1" stroke-width="0.5"/>
<path d="M1259.29 983.235H1154.35V1088.18H1259.29V983.235Z" stroke="#914AD2" stroke-opacity="0.1" stroke-width="0.5"/>
<path d="M1364.24 983.235H1259.29V1088.18H1364.24V983.235Z" stroke="#914AD2" stroke-opacity="0.1" stroke-width="0.5"/>
<path d="M1469.18 983.235H1364.24V1088.18H1469.18V983.235Z" stroke="#914AD2" stroke-opacity="0.1" stroke-width="0.5"/>
<path d="M1574.12 983.235H1469.18V1088.18H1574.12V983.235Z" stroke="#914AD2" stroke-opacity="0.1" stroke-width="0.5"/>
<path d="M1679.06 983.235H1574.12V1088.18H1679.06V983.235Z" stroke="#914AD2" stroke-opacity="0.1" stroke-width="0.5"/>
<path d="M1784 983.235H1679.06V1088.18H1784V983.235Z" stroke="#914AD2" stroke-opacity="0.1" stroke-width="0.5"/>
<path d="M1888.94 983.235H1784V1088.18H1888.94V983.235Z" stroke="#914AD2" stroke-opacity="0.1" stroke-width="0.5"/>
<path d="M104.941 1088.18H0V1193.12H104.941V1088.18Z" stroke="#914AD2" stroke-opacity="0.1" stroke-width="0.5"/>
<path d="M209.883 1088.18H104.941V1193.12H209.883V1088.18Z" stroke="#914AD2" stroke-opacity="0.1" stroke-width="0.5"/>
<path d="M314.824 1088.18H209.882V1193.12H314.824V1088.18Z" stroke="#914AD2" stroke-opacity="0.1" stroke-width="0.5"/>
<path d="M419.765 1088.18H314.824V1193.12H419.765V1088.18Z" stroke="#914AD2" stroke-opacity="0.1" stroke-width="0.5"/>
<path d="M524.706 1088.18H419.765V1193.12H524.706V1088.18Z" stroke="#914AD2" stroke-opacity="0.1" stroke-width="0.5"/>
<path d="M629.647 1088.18H524.706V1193.12H629.647V1088.18Z" stroke="#914AD2" stroke-opacity="0.1" stroke-width="0.5"/>
<path d="M734.588 1088.18H629.647V1193.12H734.588V1088.18Z" stroke="#914AD2" stroke-opacity="0.1" stroke-width="0.5"/>
<path d="M839.53 1088.18H734.588V1193.12H839.53V1088.18Z" stroke="#914AD2" stroke-opacity="0.1" stroke-width="0.5"/>
<path d="M944.471 1088.18H839.529V1193.12H944.471V1088.18Z" stroke="#914AD2" stroke-opacity="0.1" stroke-width="0.5"/>
<path d="M1049.41 1088.18H944.471V1193.12H1049.41V1088.18Z" stroke="#914AD2" stroke-opacity="0.1" stroke-width="0.5"/>
<path d="M1154.35 1088.18H1049.41V1193.12H1154.35V1088.18Z" stroke="#914AD2" stroke-opacity="0.1" stroke-width="0.5"/>
<path d="M1259.29 1088.18H1154.35V1193.12H1259.29V1088.18Z" stroke="#914AD2" stroke-opacity="0.1" stroke-width="0.5"/>
<path d="M1364.24 1088.18H1259.29V1193.12H1364.24V1088.18Z" stroke="#914AD2" stroke-opacity="0.1" stroke-width="0.5"/>
<path d="M1469.18 1088.18H1364.24V1193.12H1469.18V1088.18Z" stroke="#914AD2" stroke-opacity="0.1" stroke-width="0.5"/>
<path d="M1574.12 1088.18H1469.18V1193.12H1574.12V1088.18Z" stroke="#914AD2" stroke-opacity="0.1" stroke-width="0.5"/>
<path d="M1679.06 1088.18H1574.12V1193.12H1679.06V1088.18Z" stroke="#914AD2" stroke-opacity="0.1" stroke-width="0.5"/>
<path d="M1784 1088.18H1679.06V1193.12H1784V1088.18Z" stroke="#914AD2" stroke-opacity="0.1" stroke-width="0.5"/>
<path d="M1888.94 1088.18H1784V1193.12H1888.94V1088.18Z" stroke="#914AD2" stroke-opacity="0.1" stroke-width="0.5"/>
<path d="M104.941 1193.12H0V1298.06H104.941V1193.12Z" stroke="#914AD2" stroke-opacity="0.1" stroke-width="0.5"/>
<path d="M209.883 1193.12H104.941V1298.06H209.883V1193.12Z" stroke="#914AD2" stroke-opacity="0.1" stroke-width="0.5"/>
<path d="M314.824 1193.12H209.882V1298.06H314.824V1193.12Z" stroke="#914AD2" stroke-opacity="0.1" stroke-width="0.5"/>
<path d="M419.765 1193.12H314.824V1298.06H419.765V1193.12Z" stroke="#914AD2" stroke-opacity="0.1" stroke-width="0.5"/>
<path d="M524.706 1193.12H419.765V1298.06H524.706V1193.12Z" stroke="#914AD2" stroke-opacity="0.1" stroke-width="0.5"/>
<path d="M629.647 1193.12H524.706V1298.06H629.647V1193.12Z" stroke="#914AD2" stroke-opacity="0.1" stroke-width="0.5"/>
<path d="M734.588 1193.12H629.647V1298.06H734.588V1193.12Z" stroke="#914AD2" stroke-opacity="0.1" stroke-width="0.5"/>
<path d="M839.53 1193.12H734.588V1298.06H839.53V1193.12Z" stroke="#914AD2" stroke-opacity="0.1" stroke-width="0.5"/>
<path d="M944.471 1193.12H839.529V1298.06H944.471V1193.12Z" stroke="#914AD2" stroke-opacity="0.1" stroke-width="0.5"/>
<path d="M1049.41 1193.12H944.471V1298.06H1049.41V1193.12Z" stroke="#914AD2" stroke-opacity="0.1" stroke-width="0.5"/>
<path d="M1154.35 1193.12H1049.41V1298.06H1154.35V1193.12Z" stroke="#914AD2" stroke-opacity="0.1" stroke-width="0.5"/>
<path d="M1259.29 1193.12H1154.35V1298.06H1259.29V1193.12Z" stroke="#914AD2" stroke-opacity="0.1" stroke-width="0.5"/>
<path d="M1364.24 1193.12H1259.29V1298.06H1364.24V1193.12Z" stroke="#914AD2" stroke-opacity="0.1" stroke-width="0.5"/>
<path d="M1469.18 1193.12H1364.24V1298.06H1469.18V1193.12Z" stroke="#914AD2" stroke-opacity="0.1" stroke-width="0.5"/>
<path d="M1574.12 1193.12H1469.18V1298.06H1574.12V1193.12Z" stroke="#914AD2" stroke-opacity="0.1" stroke-width="0.5"/>
<path d="M1679.06 1193.12H1574.12V1298.06H1679.06V1193.12Z" stroke="#914AD2" stroke-opacity="0.1" stroke-width="0.5"/>
<path d="M1784 1193.12H1679.06V1298.06H1784V1193.12Z" stroke="#914AD2" stroke-opacity="0.1" stroke-width="0.5"/>
<path d="M1888.94 1193.12H1784V1298.06H1888.94V1193.12Z" stroke="#914AD2" stroke-opacity="0.1" stroke-width="0.5"/>
<path d="M104.941 1298.06H0V1403H104.941V1298.06Z" stroke="#914AD2" stroke-opacity="0.1" stroke-width="0.5"/>
<path d="M209.883 1298.06H104.941V1403H209.883V1298.06Z" stroke="#914AD2" stroke-opacity="0.1" stroke-width="0.5"/>
<path d="M314.824 1298.06H209.882V1403H314.824V1298.06Z" stroke="#914AD2" stroke-opacity="0.1" stroke-width="0.5"/>
<path d="M419.765 1298.06H314.824V1403H419.765V1298.06Z" stroke="#914AD2" stroke-opacity="0.1" stroke-width="0.5"/>
<path d="M524.706 1298.06H419.765V1403H524.706V1298.06Z" stroke="#914AD2" stroke-opacity="0.1" stroke-width="0.5"/>
<path d="M629.647 1298.06H524.706V1403H629.647V1298.06Z" stroke="#914AD2" stroke-opacity="0.1" stroke-width="0.5"/>
<path d="M734.588 1298.06H629.647V1403H734.588V1298.06Z" stroke="#914AD2" stroke-opacity="0.1" stroke-width="0.5"/>
<path d="M839.53 1298.06H734.588V1403H839.53V1298.06Z" stroke="#914AD2" stroke-opacity="0.1" stroke-width="0.5"/>
<path d="M944.471 1298.06H839.529V1403H944.471V1298.06Z" stroke="#914AD2" stroke-opacity="0.1" stroke-width="0.5"/>
<path d="M1049.41 1298.06H944.471V1403H1049.41V1298.06Z" stroke="#914AD2" stroke-opacity="0.1" stroke-width="0.5"/>
<path d="M1154.35 1298.06H1049.41V1403H1154.35V1298.06Z" stroke="#914AD2" stroke-opacity="0.1" stroke-width="0.5"/>
<path d="M1259.29 1298.06H1154.35V1403H1259.29V1298.06Z" stroke="#914AD2" stroke-opacity="0.1" stroke-width="0.5"/>
<path d="M1364.24 1298.06H1259.29V1403H1364.24V1298.06Z" stroke="#914AD2" stroke-opacity="0.1" stroke-width="0.5"/>
<path d="M1469.18 1298.06H1364.24V1403H1469.18V1298.06Z" stroke="#914AD2" stroke-opacity="0.1" stroke-width="0.5"/>
<path d="M1574.12 1298.06H1469.18V1403H1574.12V1298.06Z" stroke="#914AD2" stroke-opacity="0.1" stroke-width="0.5"/>
<path d="M1679.06 1298.06H1574.12V1403H1679.06V1298.06Z" stroke="#914AD2" stroke-opacity="0.1" stroke-width="0.5"/>
<path d="M1784 1298.06H1679.06V1403H1784V1298.06Z" stroke="#914AD2" stroke-opacity="0.1" stroke-width="0.5"/>
<path d="M1888.94 1298.06H1784V1403H1888.94V1298.06Z" stroke="#914AD2" stroke-opacity="0.1" stroke-width="0.5"/>
<path d="M104.941 1403H0V1507.94H104.941V1403Z" stroke="#914AD2" stroke-opacity="0.1" stroke-width="0.5"/>
<path d="M209.883 1403H104.941V1507.94H209.883V1403Z" stroke="#914AD2" stroke-opacity="0.1" stroke-width="0.5"/>
<path d="M314.824 1403H209.882V1507.94H314.824V1403Z" stroke="#914AD2" stroke-opacity="0.1" stroke-width="0.5"/>
<path d="M419.765 1403H314.824V1507.94H419.765V1403Z" stroke="#914AD2" stroke-opacity="0.1" stroke-width="0.5"/>
<path d="M524.706 1403H419.765V1507.94H524.706V1403Z" stroke="#914AD2" stroke-opacity="0.1" stroke-width="0.5"/>
<path d="M629.647 1403H524.706V1507.94H629.647V1403Z" stroke="#914AD2" stroke-opacity="0.1" stroke-width="0.5"/>
<path d="M734.588 1403H629.647V1507.94H734.588V1403Z" stroke="#914AD2" stroke-opacity="0.1" stroke-width="0.5"/>
<path d="M839.53 1403H734.588V1507.94H839.53V1403Z" stroke="#914AD2" stroke-opacity="0.1" stroke-width="0.5"/>
<path d="M944.471 1403H839.529V1507.94H944.471V1403Z" stroke="#914AD2" stroke-opacity="0.1" stroke-width="0.5"/>
<path d="M1049.41 1403H944.471V1507.94H1049.41V1403Z" stroke="#914AD2" stroke-opacity="0.1" stroke-width="0.5"/>
<path d="M1154.35 1403H1049.41V1507.94H1154.35V1403Z" stroke="#914AD2" stroke-opacity="0.1" stroke-width="0.5"/>
<path d="M1259.29 1403H1154.35V1507.94H1259.29V1403Z" stroke="#914AD2" stroke-opacity="0.1" stroke-width="0.5"/>
<path d="M1364.24 1403H1259.29V1507.94H1364.24V1403Z" stroke="#914AD2" stroke-opacity="0.1" stroke-width="0.5"/>
<path d="M1469.18 1403H1364.24V1507.94H1469.18V1403Z" stroke="#914AD2" stroke-opacity="0.1" stroke-width="0.5"/>
<path d="M1574.12 1403H1469.18V1507.94H1574.12V1403Z" stroke="#914AD2" stroke-opacity="0.1" stroke-width="0.5"/>
<path d="M1679.06 1403H1574.12V1507.94H1679.06V1403Z" stroke="#914AD2" stroke-opacity="0.1" stroke-width="0.5"/>
<path d="M1784 1403H1679.06V1507.94H1784V1403Z" stroke="#914AD2" stroke-opacity="0.1" stroke-width="0.5"/>
<path d="M1888.94 1403H1784V1507.94H1888.94V1403Z" stroke="#914AD2" stroke-opacity="0.1" stroke-width="0.5"/>
<path d="M960.78 1165.61L942.85 1183.54C940.733 1185.66 937.268 1185.66 935.15 1183.54L917.22 1165.61" stroke="white" stroke-width="1.5" stroke-miterlimit="10" stroke-linecap="round" stroke-linejoin="round"/>
</g>
<defs>
<clipPath id="clip0_136_41">
<rect width="1784" height="1403" fill="white"/>
</clipPath>
</defs>
</svg>
