<svg width="208" height="208" viewBox="0 0 208 208" fill="none" xmlns="http://www.w3.org/2000/svg">
<path d="M152 0H56C41.1528 0.0158823 26.9182 5.92097 16.4196 16.4196C5.92097 26.9182 0.0158823 41.1528 0 56V152C0.0158823 166.847 5.92097 181.082 16.4196 191.58C26.9182 202.079 41.1528 207.984 56 208H152C166.847 207.984 181.082 202.079 191.58 191.58C202.079 181.082 207.984 166.847 208 152V56C207.984 41.1528 202.079 26.9182 191.58 16.4196C181.082 5.92097 166.847 0.0158823 152 0ZM104 152C94.5065 152 85.2262 149.185 77.3326 143.911C69.4391 138.636 63.2868 131.14 59.6538 122.369C56.0208 113.598 55.0702 103.947 56.9223 94.6357C58.7744 85.3246 63.346 76.7718 70.0589 70.0589C76.7718 63.346 85.3246 58.7744 94.6357 56.9223C103.947 55.0702 113.598 56.0208 122.369 59.6538C131.14 63.2868 138.636 69.4391 143.911 77.3326C149.185 85.2262 152 94.5065 152 104C151.987 116.726 146.925 128.928 137.927 137.927C128.928 146.925 116.726 151.987 104 152ZM164 56C161.627 56 159.307 55.2962 157.333 53.9776C155.36 52.6591 153.822 50.7849 152.913 48.5922C152.005 46.3995 151.768 43.9867 152.231 41.6589C152.694 39.3311 153.836 37.1929 155.515 35.5147C157.193 33.8365 159.331 32.6936 161.659 32.2306C163.987 31.7676 166.399 32.0052 168.592 32.9134C170.785 33.8217 172.659 35.3598 173.978 37.3332C175.296 39.3065 176 41.6266 176 44C176 47.1826 174.736 50.2348 172.485 52.4853C170.235 54.7357 167.183 56 164 56ZM136 104C136 110.329 134.123 116.516 130.607 121.778C127.091 127.041 122.093 131.142 116.246 133.564C110.399 135.986 103.965 136.62 97.7571 135.385C91.5497 134.15 85.8479 131.103 81.3726 126.627C76.8973 122.152 73.8496 116.45 72.6149 110.243C71.3801 104.035 72.0138 97.6014 74.4359 91.7541C76.8579 85.9069 80.9594 80.9092 86.2218 77.393C91.4841 73.8768 97.671 72 104 72C112.487 72 120.626 75.3714 126.627 81.3726C132.629 87.3737 136 95.5131 136 104Z" fill="#F8F8F8"/>
</svg>
