<svg width="512" height="146" viewBox="0 0 512 146" fill="none" xmlns="http://www.w3.org/2000/svg">
<path d="M27.1273 0.901991C16.6803 5.27799 5.19729 17.625 1.57029 33.135C-3.02371 52.78 16.0903 61.09 17.6593 58.369C19.5043 55.168 14.2343 54.086 13.1493 43.892C11.7473 30.726 17.8683 16.015 25.5723 9.55999C27.0023 8.35999 26.9353 10.03 26.9353 13.117C26.9353 18.638 26.6303 68.202 26.6303 78.546C26.6303 92.542 26.0523 96.962 25.0133 101.33C23.9623 105.755 22.2703 108.746 23.5513 109.898C24.9833 111.186 31.0973 108.121 34.6363 103.182C38.8803 97.258 40.3663 90.142 40.6333 82.417C40.9553 73.103 40.9413 58.323 40.9553 49.893C40.9673 42.162 41.0853 19.523 40.8193 5.91299C40.7543 2.57299 31.4963 -0.929009 27.1273 0.901991ZM398.07 66.405C397.733 73.682 396.122 79.369 394.123 83.381C390.253 91.148 382.223 93.559 378.813 82.395C376.955 76.309 376.868 66.145 378.203 57.652C379.563 49.001 383.361 42.467 389.648 43.056C395.85 43.639 398.753 51.629 398.07 66.405ZM293.52 111.551C293.436 123.641 291.533 134.241 287.453 137.321C281.665 141.687 273.886 138.411 275.497 129.589C276.922 121.782 283.663 113.809 293.537 104.067C293.537 104.067 293.557 106.289 293.52 111.551ZM291.94 66.334C291.586 72.962 289.868 79.619 287.993 83.381C284.123 91.148 276.035 93.576 272.683 82.395C270.391 74.755 270.94 64.869 272.073 58.639C273.545 50.556 277.113 43.057 283.518 43.057C289.746 43.057 292.818 49.89 291.94 66.334ZM231.375 66.234C230.995 73.252 229.626 79.119 227.429 83.381C223.453 91.095 215.587 93.541 212.119 82.395C209.618 74.358 210.469 63.4 211.509 57.48C213.053 48.695 216.919 42.467 222.954 43.057C229.153 43.663 232.166 51.63 231.375 66.234ZM508.928 74.432C507.413 74.432 506.721 75.994 506.148 78.622C504.165 87.766 502.078 89.829 499.389 89.829C496.384 89.829 493.684 85.303 492.989 76.241C492.444 69.115 492.532 55.997 493.229 42.948C493.372 40.267 492.632 37.614 485.441 35.002C482.347 33.878 477.849 32.223 475.609 37.629C469.282 52.903 466.806 65.029 466.223 69.953C466.193 70.208 465.88 70.261 465.826 69.665C465.454 65.72 464.625 58.55 464.521 43.488C464.501 40.549 463.879 38.048 460.635 36C458.53 34.67 452.139 32.32 449.838 35.117C447.844 37.403 445.534 43.557 443.135 50.853C441.185 56.783 439.827 60.793 439.827 60.793C439.827 60.793 439.853 44.795 439.876 38.726C439.886 36.437 438.316 35.674 437.842 35.536C435.712 34.918 431.512 33.885 429.73 33.885C427.53 33.885 426.992 35.113 426.992 36.905C426.992 37.14 426.645 57.968 426.645 72.532C426.645 73.165 426.645 73.855 426.648 74.589C425.432 81.283 421.487 90.369 417.197 90.369C412.901 90.369 410.875 86.571 410.875 69.208C410.875 59.079 411.179 54.674 411.328 47.348C411.415 43.128 411.583 39.888 411.573 39.153C411.541 36.898 407.643 35.761 405.828 35.341C404.005 34.918 402.421 34.753 401.184 34.824C399.433 34.924 398.194 36.071 398.194 37.651C398.194 38.499 398.204 40.109 398.204 40.109C395.949 36.565 392.322 34.099 389.909 33.384C383.409 31.454 376.627 33.164 371.511 40.323C367.445 46.01 364.994 52.453 364.029 61.708C363.324 68.475 363.554 75.336 364.808 81.139C363.293 87.687 360.482 90.369 357.403 90.369C352.933 90.369 349.693 83.075 350.069 70.457C350.317 62.158 351.978 56.334 353.793 47.908C354.567 44.316 353.938 42.436 352.361 40.634C350.914 38.981 347.831 38.136 343.401 39.174C340.245 39.915 335.732 40.712 331.603 41.324C331.603 41.324 331.853 40.329 332.057 38.577C333.131 29.387 323.144 30.132 319.957 33.067C318.056 34.82 316.761 36.887 316.27 40.603C315.49 46.501 320.3 49.283 320.3 49.283C318.723 56.507 314.854 65.943 310.86 72.766C308.721 76.421 307.085 79.13 304.972 82.009C304.903 70.4552 304.979 58.9009 305.198 47.349C305.285 43.129 305.454 39.975 305.445 39.239C305.421 37.591 304.458 36.967 302.455 36.179C300.683 35.481 298.589 34.999 296.416 34.829C293.674 34.617 292.022 36.07 292.066 37.79C292.074 38.115 292.074 40.109 292.074 40.109C289.819 36.565 286.192 34.099 283.779 33.384C277.279 31.454 270.497 33.164 265.381 40.323C261.316 46.01 258.654 53.992 257.899 61.638C257.197 68.763 257.326 74.818 258.284 79.92C257.251 85.028 254.279 90.37 250.92 90.37C246.624 90.37 244.18 86.571 244.18 69.208C244.18 59.079 244.484 54.674 244.634 47.348C244.721 43.129 244.888 39.888 244.879 39.153C244.847 36.898 240.948 35.762 239.133 35.341C237.235 34.901 235.596 34.741 234.337 34.834C232.677 34.957 231.509 36.444 231.509 37.553V40.109C229.254 36.565 225.627 34.099 223.214 33.384C216.714 31.454 209.97 33.192 204.816 40.323C201.456 44.972 198.735 50.126 197.335 61.536C196.93 64.833 196.751 67.922 196.775 70.807C195.435 79.003 189.515 88.449 184.674 88.449C181.841 88.449 179.142 82.953 179.142 71.242C179.142 55.642 180.108 33.43 180.272 31.29C180.272 31.29 186.389 31.186 187.573 31.172C190.625 31.138 193.388 31.211 197.453 31.002C199.491 30.899 201.455 23.582 199.351 22.677C198.397 22.267 191.658 21.909 188.986 21.852C186.74 21.802 180.486 21.338 180.486 21.338C180.486 21.338 181.047 6.59499 181.178 5.03799C181.288 3.73899 179.608 3.07099 178.646 2.66599C176.304 1.67599 174.209 1.20099 171.726 0.688991C168.294 -0.019009 166.738 0.673991 166.434 3.56899C165.976 7.96399 165.739 20.837 165.739 20.837C163.221 20.837 154.619 20.345 152.101 20.345C149.761 20.345 147.235 30.409 150.471 30.533C154.193 30.677 160.68 30.803 164.98 30.931C164.98 30.931 164.788 53.509 164.788 60.481C164.788 61.221 164.792 61.936 164.796 62.629C162.429 74.964 154.093 81.628 154.093 81.628C155.883 73.467 152.226 67.338 145.639 62.15C143.212 60.239 138.421 56.62 133.061 52.654C133.061 52.654 136.165 49.594 138.919 43.438C140.869 39.076 140.954 34.087 136.165 32.986C128.253 31.166 121.73 36.977 119.784 43.181C118.276 47.987 119.08 51.552 122.034 55.256C122.249 55.527 122.484 55.804 122.724 56.082C120.939 59.524 118.485 64.159 116.407 67.753C110.639 77.733 106.282 85.625 102.989 85.625C100.357 85.625 100.392 77.611 100.392 70.108C100.392 63.64 100.87 53.915 101.252 43.848C101.378 40.518 99.7123 38.621 96.9223 36.903C95.2263 35.859 91.6073 33.807 89.5113 33.807C86.3733 33.807 77.3213 34.234 68.7693 58.974C67.6913 62.092 65.5733 67.774 65.5733 67.774L65.7563 38.023C65.7563 37.325 65.3843 36.651 64.5333 36.19C63.0923 35.407 59.2433 33.807 55.8203 33.807C54.1903 33.807 53.3753 34.565 53.3753 36.077L53.0773 82.623C53.0773 86.16 53.1693 90.286 53.5193 92.09C53.8673 93.896 54.4323 95.366 55.1303 96.24C55.8293 97.113 56.6363 97.78 57.9673 98.054C59.2063 98.309 65.9903 99.18 66.3433 96.588C66.7653 93.48 66.7823 90.12 70.3443 77.586C75.8903 58.072 83.1203 48.552 86.5203 45.17C87.1153 44.58 87.7933 44.544 87.7603 45.511C87.6163 49.789 87.1053 60.481 86.7623 69.561C85.8413 93.866 90.2623 98.371 96.5813 98.371C101.415 98.371 108.229 93.568 115.533 81.41C119.603 74.6346 123.654 67.8479 127.686 61.05C129.899 63.099 132.384 65.304 134.866 67.66C140.636 73.136 142.53 78.34 141.273 83.276C140.313 87.049 136.692 90.938 130.249 87.159C128.371 86.056 127.569 85.203 125.681 83.96C124.667 83.293 123.118 83.093 122.189 83.793C119.777 85.611 118.397 87.925 117.609 90.789C116.843 93.576 119.634 95.049 122.528 96.338C125.019 97.447 130.374 98.452 133.788 98.566C147.093 99.011 157.752 92.142 165.172 74.423C166.5 89.726 172.152 98.385 181.973 98.385C188.539 98.385 195.122 89.898 198.001 81.549C198.827 84.952 200.051 87.912 201.631 90.415C209.198 102.405 223.878 99.825 231.252 89.643C233.532 86.497 233.879 85.367 233.879 85.367C234.955 94.98 242.697 98.339 247.129 98.339C252.094 98.339 257.219 95.992 260.812 87.904C261.233 88.782 261.693 89.621 262.195 90.415C269.762 102.405 284.443 99.825 291.817 89.643C292.165 89.165 292.467 88.733 292.73 88.343L292.946 94.658L286.157 100.885C274.777 111.315 266.133 119.225 265.497 128.438C264.687 140.185 274.209 144.551 281.423 145.123C289.07 145.73 295.631 141.502 299.657 135.585C303.201 130.376 305.521 119.166 305.35 108.095C305.283 103.661 305.17 98.024 305.083 91.981C309.078 87.342 313.579 81.478 317.723 74.616C322.239 67.137 327.079 57.093 329.557 49.276C329.557 49.276 333.762 49.313 338.25 49.019C339.685 48.925 340.098 49.219 339.832 50.27C339.512 51.542 334.162 72.175 339.045 85.92C342.386 95.33 349.919 98.356 354.385 98.356C359.614 98.356 364.615 94.408 367.295 88.546C367.619 89.199 367.956 89.831 368.325 90.416C375.892 102.406 390.521 99.809 397.947 89.643C399.623 87.349 400.574 85.367 400.574 85.367C402.167 95.317 409.905 98.39 414.337 98.39C418.953 98.39 423.335 96.497 426.889 88.086C427.039 91.79 427.272 94.818 427.641 95.772C427.866 96.357 429.178 97.089 430.132 97.443C434.356 99.009 438.662 98.269 440.256 97.947C441.36 97.723 442.221 96.837 442.339 94.551C442.649 88.546 442.459 78.457 444.279 70.958C447.334 58.375 450.185 53.494 451.537 51.078C452.294 49.723 453.147 49.5 453.178 50.933C453.242 53.833 453.386 62.346 454.57 73.786C455.44 82.198 456.6 87.171 457.493 88.746C460.041 93.246 463.186 93.459 465.748 93.459C467.378 93.459 470.786 93.009 470.481 90.145C470.332 88.749 470.592 80.121 473.605 67.724C475.572 59.628 478.852 52.314 480.035 49.639C480.472 48.653 480.675 49.43 480.667 49.582C480.418 55.157 479.859 73.393 482.13 83.367C485.21 96.878 494.116 98.39 497.22 98.39C503.846 98.39 509.265 93.35 511.09 80.088C511.53 76.896 510.879 74.432 508.928 74.432Z" fill="white"/>
</svg>
