<svg width="303" height="63" viewBox="0 0 303 63" fill="none" xmlns="http://www.w3.org/2000/svg">
<path d="M69.9041 44.5795L62.1733 31.3019L64.8076 26.7798L69.9041 35.5244V44.5795Z" fill="white" stroke="white" stroke-width="7"/>
<path d="M45.9979 3.5H50.9766L48.4791 7.76373L45.9979 3.5Z" fill="white" stroke="white" stroke-width="7"/>
<path d="M67.3137 3.5L36.7021 56.031L6.09047 3.5H11.8353L22.2462 21.6632L33.6655 41.5858L36.6692 46.8262L39.7221 41.6143L52.9635 19.0089L52.9638 19.0084L62.0516 3.5H67.3137Z" fill="white" stroke="white" stroke-width="7"/>
<mask id="path-4-inside-1_136_373" fill="white">
<path d="M89.5899 43.7827H81.8403V44.8455H85.0898V50.8685H86.3199V44.8455H89.5899V43.7827ZM97.7381 49.8056V47.8013H102.638V46.7385H97.7381V44.8455H103.561V43.7827H96.5182V50.8685H103.663V49.8056H97.7381ZM114.611 50.008C112.714 50.008 111.453 49.097 111.453 47.3255C111.453 45.5542 112.714 44.643 114.611 44.643C115.779 44.643 116.691 45.0277 117.225 45.8983L118.373 45.3315C117.706 44.3192 116.394 43.5701 114.631 43.5701C111.894 43.5701 110.203 44.9974 110.203 47.3255C110.203 49.6537 111.894 51.0809 114.58 51.0809C116.394 51.0809 117.706 50.342 118.383 49.3096L117.245 48.7528C116.702 49.6334 115.779 50.008 114.611 50.008ZM132.115 43.7827V46.7284H126.693V43.7827H125.462V50.8685H126.693V47.8215H132.115V50.8685H133.345V43.7827H132.115ZM151.092 50.8685V43.7827H149.862V50.8685H151.092ZM165.577 43.7827V49.1577L160.205 43.7827H158.893V50.8685H160.082V45.2808L165.689 50.8685H166.775V43.7827H165.577ZM191.289 43.7827L187.957 47.8417L184.626 43.7827H183.292V50.8685H184.482V45.4326L187.895 49.522H187.967L191.38 45.4326V50.8685H192.611V43.7827H191.289ZM204.37 51.0809C207.127 51.0809 208.828 49.6638 208.828 47.3255C208.828 44.9873 207.127 43.5701 204.37 43.5701C201.612 43.5701 199.911 44.9873 199.911 47.3255C199.911 49.6638 201.612 51.0809 204.37 51.0809ZM204.37 50.008C202.412 50.008 201.161 49.0463 201.161 47.3255C201.161 45.6048 202.422 44.643 204.37 44.643C206.317 44.643 207.568 45.6048 207.568 47.3255C207.568 49.0463 206.317 50.008 204.37 50.008ZM224.136 43.7827L220.804 47.8417L217.474 43.7827H216.141V50.8685H217.331V45.4326L220.743 49.522H220.816L224.228 45.4326V50.8685H225.458V43.7827H224.136ZM234.481 49.8056V47.8013H239.38V46.7385H234.481V44.8455H240.303V43.7827H233.261V50.8685H240.405V49.8056H234.481ZM254.331 43.7827V49.1577L248.96 43.7827H247.647V50.8685H248.838V45.2808L254.444 50.8685H255.531V43.7827H254.331ZM270.204 43.7827H262.455V44.8455H265.704V50.8685H266.934V44.8455H270.204V43.7827ZM283.571 43.7827V47.4469C283.571 49.0363 282.616 49.9979 280.895 49.9979C279.182 49.9979 278.229 49.0363 278.229 47.4469V43.7827H277V47.528C277 49.6233 278.363 51.0809 280.895 51.0809C283.437 51.0809 284.8 49.6233 284.8 47.528V43.7827H283.571ZM300.466 43.7827L297.135 47.8417L293.803 43.7827H292.471V50.8685H293.66V45.4326L297.074 49.522H297.145L300.559 45.4326V50.8685H301.788V43.7827H300.466Z"/>
</mask>
<path d="M89.5899 43.7827H81.8403V44.8455H85.0898V50.8685H86.3199V44.8455H89.5899V43.7827ZM97.7381 49.8056V47.8013H102.638V46.7385H97.7381V44.8455H103.561V43.7827H96.5182V50.8685H103.663V49.8056H97.7381ZM114.611 50.008C112.714 50.008 111.453 49.097 111.453 47.3255C111.453 45.5542 112.714 44.643 114.611 44.643C115.779 44.643 116.691 45.0277 117.225 45.8983L118.373 45.3315C117.706 44.3192 116.394 43.5701 114.631 43.5701C111.894 43.5701 110.203 44.9974 110.203 47.3255C110.203 49.6537 111.894 51.0809 114.58 51.0809C116.394 51.0809 117.706 50.342 118.383 49.3096L117.245 48.7528C116.702 49.6334 115.779 50.008 114.611 50.008ZM132.115 43.7827V46.7284H126.693V43.7827H125.462V50.8685H126.693V47.8215H132.115V50.8685H133.345V43.7827H132.115ZM151.092 50.8685V43.7827H149.862V50.8685H151.092ZM165.577 43.7827V49.1577L160.205 43.7827H158.893V50.8685H160.082V45.2808L165.689 50.8685H166.775V43.7827H165.577ZM191.289 43.7827L187.957 47.8417L184.626 43.7827H183.292V50.8685H184.482V45.4326L187.895 49.522H187.967L191.38 45.4326V50.8685H192.611V43.7827H191.289ZM204.37 51.0809C207.127 51.0809 208.828 49.6638 208.828 47.3255C208.828 44.9873 207.127 43.5701 204.37 43.5701C201.612 43.5701 199.911 44.9873 199.911 47.3255C199.911 49.6638 201.612 51.0809 204.37 51.0809ZM204.37 50.008C202.412 50.008 201.161 49.0463 201.161 47.3255C201.161 45.6048 202.422 44.643 204.37 44.643C206.317 44.643 207.568 45.6048 207.568 47.3255C207.568 49.0463 206.317 50.008 204.37 50.008ZM224.136 43.7827L220.804 47.8417L217.474 43.7827H216.141V50.8685H217.331V45.4326L220.743 49.522H220.816L224.228 45.4326V50.8685H225.458V43.7827H224.136ZM234.481 49.8056V47.8013H239.38V46.7385H234.481V44.8455H240.303V43.7827H233.261V50.8685H240.405V49.8056H234.481ZM254.331 43.7827V49.1577L248.96 43.7827H247.647V50.8685H248.838V45.2808L254.444 50.8685H255.531V43.7827H254.331ZM270.204 43.7827H262.455V44.8455H265.704V50.8685H266.934V44.8455H270.204V43.7827ZM283.571 43.7827V47.4469C283.571 49.0363 282.616 49.9979 280.895 49.9979C279.182 49.9979 278.229 49.0363 278.229 47.4469V43.7827H277V47.528C277 49.6233 278.363 51.0809 280.895 51.0809C283.437 51.0809 284.8 49.6233 284.8 47.528V43.7827H283.571ZM300.466 43.7827L297.135 47.8417L293.803 43.7827H292.471V50.8685H293.66V45.4326L297.074 49.522H297.145L300.559 45.4326V50.8685H301.788V43.7827H300.466Z" fill="white" stroke="white" stroke-width="4" mask="url(#path-4-inside-1_136_373)"/>
<path d="M121.142 20.3757C124.058 20.3757 126.879 20.3757 129.7 20.3757C131.851 20.3757 132.291 19.4787 132.387 17.6374C132.53 14.7103 131.574 13.1051 129.327 13.0107C125.981 12.8691 122.682 12.9635 119.144 12.9635C119.144 16.7404 119.144 20.3757 119.144 24.0109C119.144 25.7579 119.144 27.5518 119.144 29.2987C119.144 32.1785 118.092 33.4061 114.937 34.1142C114.937 25.7106 114.937 17.3069 114.937 8.66724C115.558 8.66724 116.18 8.66724 116.801 8.66724C120.961 8.66724 125.168 8.66724 129.327 8.66724C134.108 8.66724 136.69 12.3721 136.69 15.985C136.69 17.1744 136.69 18.3953 136.499 19.4787C135.865 22.3023 133.343 24.247 129.853 24.7191C132.148 27.599 134.395 30.4317 136.594 33.2172C134.443 34.7279 132.1 34.4447 130.475 32.4617C128.849 30.4789 127.415 28.4488 125.741 26.5132C124.977 25.6162 124.49 25.1511 123.628 24.2942C122.05 23.4444 121.19 22.3114 121.142 20.3757Z" fill="white"/>
<path d="M280.214 9.56421C282.653 7.86461 285.043 8.99768 286.477 11.075C287.959 13.1995 289.346 15.324 290.971 17.6845C292.549 15.324 294.031 13.1523 295.561 10.9806C296.851 9.13931 299.098 7.77019 301.871 9.46979C299.481 12.9634 297.09 16.4571 294.652 19.9035C293.887 20.9894 293.744 21.6975 294.604 22.9251C297.09 26.3243 299.385 29.8652 301.728 33.3116C299.529 34.6807 297.712 34.4919 296.182 32.5561C294.365 30.2429 292.74 27.835 290.923 25.2856C289.441 27.5046 287.959 29.6291 286.477 31.7536C284.756 34.2086 282.987 34.6807 280.262 33.4533C280.597 32.8394 280.931 32.2257 281.314 31.7064C283.37 28.6848 285.378 25.6632 287.529 22.7363C288.246 21.7447 288.198 21.0838 287.577 20.1396C285.139 16.6931 282.7 13.1523 280.214 9.56421Z" fill="white"/>
<path d="M236.038 29.9125C235.799 32.698 234.317 34.1615 231.686 34.2087C228.722 34.2087 225.71 34.1615 222.746 34.2087C218.73 34.2559 214.523 30.8094 214.428 26.7021C214.38 23.3028 214.189 19.8564 214.428 16.4572C214.762 11.6417 218.205 9.32831 222.412 8.66734C222.746 8.62013 223.129 8.66734 223.463 8.66734C227.623 8.66734 231.83 8.66734 235.991 8.66734C235.847 11.5472 234.413 12.9164 231.638 12.9636C229.2 12.9636 226.762 12.9164 224.276 12.9636C221.025 13.0108 218.778 14.852 218.587 18.0152C218.396 20.5647 218.539 23.2084 218.778 25.7579C219.017 28.2601 221.169 29.8652 223.702 29.9125C227.766 29.9125 231.83 29.9125 236.038 29.9125Z" fill="white"/>
<path d="M103.605 8.66719C102.84 12.0664 101.741 12.9162 98.4419 12.9634C95.4777 12.9634 92.4656 12.9162 89.5016 12.9634C87.876 13.0106 86.5374 13.7188 86.2027 15.3712C85.8681 16.882 86.1071 18.3455 87.8282 19.0065C88.354 19.1954 88.9755 19.2898 89.5494 19.2898C92.5134 19.337 95.5255 19.2898 98.4897 19.2898C98.7765 21.2726 97.7248 23.2083 95.6689 23.4444C92.8959 23.7276 90.0275 23.8693 87.3023 23.3028C83.2385 22.5474 81.1826 19.0538 81.8041 14.7575C82.2345 11.9248 84.8161 8.85603 89.119 8.7144C93.9 8.57276 98.6809 8.66719 103.605 8.66719Z" fill="white"/>
<path d="M198.221 19.2898C197.504 22.6419 196.357 23.586 193.104 23.5388C190.953 23.5388 188.754 23.7277 186.698 23.3028C182.969 22.5002 180.626 18.865 181.057 15.2297C181.487 11.736 184.547 8.8089 188.276 8.66727C193.104 8.52565 197.934 8.62006 202.763 8.62006C202.858 11.0751 201.233 12.8691 198.843 12.8691C195.544 12.9163 192.291 12.8691 188.993 12.8691C187.272 12.8691 185.981 13.5773 185.455 15.2297C185.025 16.6932 185.598 17.9208 186.841 18.7233C187.367 19.0538 188.036 19.1482 188.658 19.1954C191.909 19.337 195.066 19.2898 198.221 19.2898Z" fill="white"/>
<path d="M247.465 34.1614C247.465 26.9853 247.417 19.998 247.465 12.9634C247.465 10.6501 248.994 9.32813 251.767 8.95044C251.767 12.3497 251.767 15.7489 251.767 19.2897C255.641 19.2897 258.594 19.2897 262.323 19.2897C262.323 21.8863 260.697 23.586 258.307 23.586C255.917 23.6332 254.397 23.586 251.815 23.586C251.815 25.616 251.815 27.4574 251.815 29.3457C251.767 32.1785 250.668 33.4531 247.465 34.1614Z" fill="white"/>
<path d="M169.918 8.66719C169.153 12.0192 168.149 12.869 164.898 12.9634C162.316 13.0106 161.073 14.2381 161.073 16.7875C161.073 20.9893 161.073 25.1439 161.073 29.3457C161.073 32.1784 159.925 33.5005 156.722 34.1614C156.722 33.2644 156.722 32.4145 156.722 31.5647C156.722 26.3243 156.722 21.0838 156.722 15.7961C156.722 11.9248 159.447 8.95045 163.32 8.7144C165.471 8.57276 167.623 8.66719 169.918 8.66719Z" fill="white"/>
<path d="M203.002 34.2086C197.885 34.2086 192.865 34.3503 187.845 34.1614C184.403 34.0198 181.248 32.0385 181.105 28.592C181.009 26.7981 181.105 24.9568 181.105 23.1156C184.164 23.5877 185.312 24.8623 185.455 27.7895C185.898 29.7093 187.465 29.9124 189.184 29.9124C192.1 29.9596 195.016 29.9124 197.933 29.9124C200.803 29.9124 202.237 31.0455 203.002 34.2086Z" fill="white"/>
<path d="M81.8049 23.467C83.8607 23.5143 85.3428 24.6001 85.7731 26.2998C85.9643 26.9607 86.06 27.6688 86.1078 28.3771C86.2032 29.7906 87.5898 29.865 89.6457 29.9122C92.7055 29.9595 95.7176 29.9122 98.7774 29.9122C101.598 29.9122 103.032 31.2343 103.463 34.1614C98.4904 34.1614 93.5661 34.2558 88.5939 34.1142C85.0082 34.0198 81.8527 32.7368 81.8049 29.1488C81.7571 27.4491 81.8049 25.2139 81.8049 23.467Z" fill="white"/>
<path d="M268.645 8.95044C268.645 16.1266 268.645 23.2082 268.645 30.2899C268.645 32.2729 267.115 33.642 264.342 34.1141C264.342 33.2643 264.342 32.4617 264.342 31.6592C264.342 25.6633 264.342 19.6674 264.342 13.6244C264.294 10.7917 265.681 9.23371 268.645 8.95044Z" fill="white"/>
<path d="M157.167 8.80897C156.402 12.0666 155.255 12.9636 152.147 12.9636C150.522 12.9636 149.933 12.9636 148.355 12.9636C148.888 9.60461 149.712 8.54647 157.167 8.80897Z" fill="white"/>
</svg>
