<svg width="3795" height="799" viewBox="0 0 3795 799" fill="none" xmlns="http://www.w3.org/2000/svg">
<path d="M915.5 716.877L732.036 397.402L811.542 259.024L915.5 439.87V716.877Z" fill="#151313" stroke="black" stroke-width="7"/>
<path d="M506.039 3.5H708.941L607.16 179.977L506.039 3.5Z" fill="#151313" stroke="black" stroke-width="7"/>
<path d="M912.95 3.5L459.5 791.979L6.05034 3.5H171.524L313.486 254.463L456.454 507.203L459.467 512.53L462.53 507.231L628.312 220.452L628.312 220.451L753.778 3.5H912.95Z" fill="#151313" stroke="black" stroke-width="7"/>
<mask id="path-4-inside-1_37_194" fill="white">
<path d="M1122.07 555.689H1025V569.133H1065.7V645.313H1081.11V569.133H1122.07V555.689ZM1224.13 631.87V606.519H1285.5V593.075H1224.13V569.133H1297.06V555.689H1208.85V645.313H1298.34V631.87H1224.13ZM1435.47 634.429C1411.72 634.429 1395.92 622.906 1395.92 600.5C1395.92 578.096 1411.72 566.571 1435.47 566.571C1450.11 566.571 1461.53 571.437 1468.21 582.448L1482.59 575.279C1474.25 562.476 1457.81 553 1435.73 553C1401.45 553 1380.26 571.054 1380.26 600.5C1380.26 629.948 1401.45 648 1435.08 648C1457.81 648 1474.25 638.654 1482.72 625.596L1468.47 618.554C1461.66 629.691 1450.11 634.429 1435.47 634.429ZM1654.73 555.689V592.947H1586.8V555.689H1571.4V645.313H1586.8V606.774H1654.73V645.313H1670.13V555.689H1654.73ZM1892.42 645.313V555.689H1877.02V645.313H1892.42ZM2073.86 555.689V623.675L2006.58 555.689H1990.14V645.313H2005.04V574.638L2075.26 645.313H2088.87V555.689H2073.86ZM2395.92 555.689L2354.19 607.029L2312.46 555.689H2295.75V645.313H2310.66V576.557L2353.4 628.283H2354.31L2397.06 576.557V645.313H2412.48V555.689H2395.92ZM2559.77 648C2594.29 648 2615.6 630.076 2615.6 600.5C2615.6 570.926 2594.29 553 2559.77 553C2525.22 553 2503.91 570.926 2503.91 600.5C2503.91 630.076 2525.22 648 2559.77 648ZM2559.77 634.429C2535.24 634.429 2519.57 622.266 2519.57 600.5C2519.57 578.736 2535.36 566.571 2559.77 566.571C2584.16 566.571 2599.83 578.736 2599.83 600.5C2599.83 622.266 2584.16 634.429 2559.77 634.429ZM2807.35 555.689L2765.62 607.029L2723.91 555.689H2707.2V645.313H2722.11V576.557L2764.86 628.283H2765.76L2808.51 576.557V645.313H2823.91V555.689H2807.35ZM2936.92 631.87V606.519H2998.29V593.075H2936.92V569.133H3009.86V555.689H2921.64V645.313H3011.14V631.87H2936.92ZM3185.56 555.689V623.675L3118.28 555.689H3101.85V645.313H3116.75V574.638L3186.98 645.313H3200.59V555.689H3185.56ZM3384.39 555.689H3287.32V569.133H3328.01V645.313H3343.42V569.133H3384.39V555.689ZM3551.81 555.689V602.036C3551.81 622.138 3539.85 634.301 3518.29 634.301C3496.84 634.301 3484.91 622.138 3484.91 602.036V555.689H3469.5V603.061C3469.5 629.563 3486.58 648 3518.29 648C3550.14 648 3567.21 629.563 3567.21 603.061V555.689H3551.81ZM3763.44 555.689L3721.71 607.029L3679.98 555.689H3663.29V645.313H3678.18V576.557L3720.94 628.283H3721.83L3764.6 576.557V645.313H3780V555.689H3763.44Z"/>
</mask>
<path d="M1122.07 555.689H1025V569.133H1065.7V645.313H1081.11V569.133H1122.07V555.689ZM1224.13 631.87V606.519H1285.5V593.075H1224.13V569.133H1297.06V555.689H1208.85V645.313H1298.34V631.87H1224.13ZM1435.47 634.429C1411.72 634.429 1395.92 622.906 1395.92 600.5C1395.92 578.096 1411.72 566.571 1435.47 566.571C1450.11 566.571 1461.53 571.437 1468.21 582.448L1482.59 575.279C1474.25 562.476 1457.81 553 1435.73 553C1401.45 553 1380.26 571.054 1380.26 600.5C1380.26 629.948 1401.45 648 1435.08 648C1457.81 648 1474.25 638.654 1482.72 625.596L1468.47 618.554C1461.66 629.691 1450.11 634.429 1435.47 634.429ZM1654.73 555.689V592.947H1586.8V555.689H1571.4V645.313H1586.8V606.774H1654.73V645.313H1670.13V555.689H1654.73ZM1892.42 645.313V555.689H1877.02V645.313H1892.42ZM2073.86 555.689V623.675L2006.58 555.689H1990.14V645.313H2005.04V574.638L2075.26 645.313H2088.87V555.689H2073.86ZM2395.92 555.689L2354.19 607.029L2312.46 555.689H2295.75V645.313H2310.66V576.557L2353.4 628.283H2354.31L2397.06 576.557V645.313H2412.48V555.689H2395.92ZM2559.77 648C2594.29 648 2615.6 630.076 2615.6 600.5C2615.6 570.926 2594.29 553 2559.77 553C2525.22 553 2503.91 570.926 2503.91 600.5C2503.91 630.076 2525.22 648 2559.77 648ZM2559.77 634.429C2535.24 634.429 2519.57 622.266 2519.57 600.5C2519.57 578.736 2535.36 566.571 2559.77 566.571C2584.16 566.571 2599.83 578.736 2599.83 600.5C2599.83 622.266 2584.16 634.429 2559.77 634.429ZM2807.35 555.689L2765.62 607.029L2723.91 555.689H2707.2V645.313H2722.11V576.557L2764.86 628.283H2765.76L2808.51 576.557V645.313H2823.91V555.689H2807.35ZM2936.92 631.87V606.519H2998.29V593.075H2936.92V569.133H3009.86V555.689H2921.64V645.313H3011.14V631.87H2936.92ZM3185.56 555.689V623.675L3118.28 555.689H3101.85V645.313H3116.75V574.638L3186.98 645.313H3200.59V555.689H3185.56ZM3384.39 555.689H3287.32V569.133H3328.01V645.313H3343.42V569.133H3384.39V555.689ZM3551.81 555.689V602.036C3551.81 622.138 3539.85 634.301 3518.29 634.301C3496.84 634.301 3484.91 622.138 3484.91 602.036V555.689H3469.5V603.061C3469.5 629.563 3486.58 648 3518.29 648C3550.14 648 3567.21 629.563 3567.21 603.061V555.689H3551.81ZM3763.44 555.689L3721.71 607.029L3679.98 555.689H3663.29V645.313H3678.18V576.557L3720.94 628.283H3721.83L3764.6 576.557V645.313H3780V555.689H3763.44Z" fill="#151313" stroke="black" stroke-width="4" mask="url(#path-4-inside-1_37_194)"/>
<path d="M1517.27 258.487C1553.8 258.487 1589.12 258.487 1624.45 258.487C1651.4 258.487 1656.91 247.108 1658.11 223.749C1659.91 186.616 1647.93 166.252 1619.79 165.054C1577.87 163.258 1536.55 164.455 1492.24 164.455C1492.24 212.369 1492.24 258.487 1492.24 304.604C1492.24 326.765 1492.24 349.524 1492.24 371.685C1492.24 408.218 1479.07 423.791 1439.55 432.775C1439.55 326.167 1439.55 219.556 1439.55 109.953C1447.33 109.953 1455.12 109.953 1462.9 109.953C1515 109.953 1567.69 109.953 1619.79 109.953C1679.67 109.953 1712 156.953 1712 202.787C1712 217.875 1712 233.364 1709.61 247.108C1701.67 282.928 1670.09 307.599 1626.37 313.588C1655.12 350.123 1683.26 386.059 1710.81 421.396C1683.86 440.561 1654.52 436.967 1634.16 411.811C1613.8 386.658 1595.84 360.903 1574.88 336.348C1565.3 324.969 1559.2 319.069 1548.41 308.198C1528.65 297.417 1517.87 283.044 1517.27 258.487Z" fill="#151313"/>
<path d="M3509.61 121.333C3540.15 99.7716 3570.09 114.146 3588.05 140.499C3606.61 167.45 3623.98 194.402 3644.34 224.348C3664.1 194.402 3682.66 166.851 3701.82 139.301C3717.99 115.943 3746.13 98.5738 3780.86 120.135C3750.92 164.456 3720.98 208.776 3690.44 252.498C3680.86 266.273 3679.06 275.256 3689.84 290.83C3720.98 333.953 3749.72 378.872 3779.06 422.594C3751.52 439.962 3728.76 437.566 3709.6 413.009C3686.85 383.663 3666.49 353.117 3643.74 320.775C3625.17 348.925 3606.61 375.878 3588.05 402.828C3566.5 433.973 3544.34 439.962 3510.21 424.39C3514.4 416.603 3518.59 408.817 3523.38 402.229C3549.13 363.897 3574.28 325.566 3601.22 288.434C3610.21 275.855 3609.61 267.471 3601.82 255.493C3571.29 211.771 3540.75 166.851 3509.61 121.333Z" fill="#151313"/>
<path d="M2956.32 379.471C2953.33 414.808 2934.77 433.374 2901.81 433.973C2864.69 433.973 2826.96 433.374 2789.84 433.973C2739.54 434.572 2686.85 390.85 2685.65 338.744C2685.05 295.621 2682.66 251.899 2685.65 208.776C2689.85 147.687 2732.96 118.339 2785.65 109.954C2789.84 109.356 2794.63 109.954 2798.82 109.954C2850.92 109.954 2903.61 109.954 2955.72 109.954C2953.93 146.489 2935.96 163.858 2901.21 164.457C2870.68 164.457 2840.14 163.858 2809 164.457C2768.28 165.056 2740.14 188.414 2737.75 228.542C2735.35 260.885 2737.15 294.423 2740.14 326.766C2743.14 358.509 2770.08 378.872 2801.82 379.471C2852.71 379.471 2903.61 379.471 2956.32 379.471Z" fill="#151313"/>
<path d="M1297.63 109.953C1288.05 153.076 1274.28 163.856 1232.96 164.455C1195.83 164.455 1158.11 163.856 1120.98 164.455C1100.62 165.054 1083.86 174.038 1079.67 195.001C1075.47 214.166 1078.47 232.732 1100.02 241.119C1106.61 243.514 1114.39 244.712 1121.58 244.712C1158.71 245.311 1196.43 244.712 1233.56 244.712C1237.15 269.866 1223.98 294.423 1198.23 297.417C1163.5 301.011 1127.57 302.808 1093.44 295.621C1042.54 286.038 1016.79 241.718 1024.57 187.215C1029.96 151.279 1062.3 112.349 1116.19 110.552C1176.07 108.755 1235.95 109.953 1297.63 109.953Z" fill="#151313"/>
<path d="M2482.67 244.712C2473.69 287.236 2459.32 299.214 2418.58 298.615C2391.63 298.615 2364.09 301.011 2338.34 295.621C2291.64 285.439 2262.3 239.322 2267.69 193.205C2273.08 148.884 2311.4 111.751 2358.1 109.954C2418.58 108.157 2479.08 109.355 2539.55 109.355C2540.75 140.499 2520.39 163.258 2490.45 163.258C2449.14 163.857 2408.4 163.258 2367.09 163.258C2345.53 163.258 2329.36 172.242 2322.78 193.205C2317.39 211.771 2324.57 227.344 2340.14 237.525C2346.73 241.718 2355.11 242.916 2362.89 243.514C2403.61 245.311 2443.15 244.712 2482.67 244.712Z" fill="#151313"/>
<path d="M3099.43 433.374C3099.43 342.337 3098.83 253.696 3099.43 164.455C3099.43 135.108 3118.59 118.338 3153.32 113.546C3153.32 156.669 3153.32 199.792 3153.32 244.71C3201.84 244.71 3238.82 244.71 3285.52 244.71C3285.52 277.652 3265.17 299.214 3235.23 299.214C3205.29 299.813 3186.25 299.214 3153.92 299.214C3153.92 324.967 3153.92 348.326 3153.92 372.282C3153.32 408.218 3139.55 424.388 3099.43 433.374Z" fill="#151313"/>
<path d="M2128.17 109.953C2118.59 152.477 2106.02 163.258 2065.3 164.455C2032.96 165.054 2017.4 180.626 2017.4 212.968C2017.4 266.273 2017.4 318.978 2017.4 372.282C2017.4 408.218 2003.02 424.989 1962.91 433.374C1962.91 421.995 1962.91 411.212 1962.91 400.432C1962.91 333.952 1962.91 267.47 1962.91 200.391C1962.91 151.279 1997.04 113.547 2045.54 110.552C2072.49 108.755 2099.43 109.953 2128.17 109.953Z" fill="#151313"/>
<path d="M2542.55 433.973C2478.46 433.973 2415.59 435.769 2352.71 433.374C2309.6 431.577 2270.08 406.442 2268.29 362.72C2267.09 339.962 2268.29 316.603 2268.29 293.246C2306.61 299.235 2320.98 315.405 2322.77 352.539C2328.33 376.893 2347.94 379.471 2369.48 379.471C2406 380.07 2442.53 379.471 2479.06 379.471C2515 379.471 2532.97 393.844 2542.55 433.973Z" fill="#151313"/>
<path d="M1024.58 297.705C1050.33 298.303 1068.89 312.078 1074.28 333.641C1076.68 342.025 1077.88 351.009 1078.47 359.994C1079.67 377.926 1097.04 378.87 1122.79 379.469C1161.11 380.068 1198.83 379.469 1237.16 379.469C1272.49 379.469 1290.45 396.24 1295.84 433.374C1233.56 433.374 1171.89 434.572 1109.61 432.775C1064.7 431.577 1025.18 415.302 1024.58 369.783C1023.98 348.221 1024.58 319.866 1024.58 297.705Z" fill="#151313"/>
<path d="M3364.71 113.546C3364.71 204.583 3364.71 294.421 3364.71 384.26C3364.71 409.416 3345.55 426.784 3310.82 432.773C3310.82 421.993 3310.82 411.811 3310.82 401.63C3310.82 325.566 3310.82 249.501 3310.82 172.84C3310.22 136.904 3327.58 117.14 3364.71 113.546Z" fill="#151313"/>
<path d="M1968.48 111.751C1958.9 153.077 1944.53 164.457 1905.61 164.457C1885.25 164.457 1877.87 164.457 1858.12 164.457C1864.79 121.845 1875.11 108.421 1968.48 111.751Z" fill="#151313"/>
</svg>
