<svg width="1457" height="612" viewBox="0 0 1457 612" fill="none" xmlns="http://www.w3.org/2000/svg">
<path d="M413.46 214.895C413.956 222.173 413.857 229.549 415.043 236.712C425.992 302.831 437.065 368.928 448.264 435.005C449.675 443.406 451.362 451.778 452.327 460.231C453.475 470.293 450.187 474.42 440.529 474.554C419.505 474.846 398.477 474.852 377.446 474.57C367.585 474.445 364.486 471.513 362.986 461.511C358.27 430.054 353.791 398.562 349.184 367.09C345.666 343.06 342.094 319.038 338.462 294.444C332.148 295.951 331.41 301.058 329.496 304.729C306.391 349.048 283.39 393.421 260.492 437.849C256.053 446.425 251.594 454.991 247.117 463.548C242.672 472.022 239.433 480.891 226.81 481.105C214.181 481.319 210.586 472.848 206.1 464.23C186.694 426.945 167.254 389.677 147.781 352.426C139.113 335.808 130.502 319.159 121.783 302.567C120.287 299.719 118.379 297.089 116.208 293.639C112.234 297.661 113.17 301.824 112.347 305.339C111.443 309.2 111.013 313.175 110.45 317.11C103.694 364.345 96.9469 411.581 90.2096 458.819C89.9688 460.506 89.9252 462.232 89.5596 463.89C87.8634 471.579 84.903 474.377 76.5718 474.553C61.8014 474.866 47.0202 474.677 32.2436 474.682C25.4236 474.684 18.5909 474.904 11.7868 474.565C3.09447 474.133 -0.901636 469.87 0.170559 461.474C1.68089 449.648 3.88047 437.908 5.85959 426.144C16.8838 360.613 27.9197 295.083 38.9674 229.556C46.9813 181.949 54.9852 134.34 62.9789 86.7295C63.073 86.169 63.1256 85.6012 63.233 85.0437C65.7705 71.8656 71.7744 67.8049 84.808 70.3199C86.7849 70.5873 88.6737 71.3064 90.3279 72.4213C91.9822 73.5363 93.3575 75.0173 94.3472 76.7493C96.5637 80.714 98.7226 84.7113 100.872 88.7128C139.575 160.765 178.295 232.809 217.03 304.844C219.605 309.625 221.309 315.206 226.834 319.146C231.668 314.209 233.973 308.462 236.833 303.141C269.912 241.607 302.976 180.064 336.025 118.514C338.696 113.548 341.852 108.844 344.783 104.019C359.146 127.983 373.515 151.943 387.888 175.9C390.187 179.724 393.827 180.744 398.05 180.216C398.884 181.467 399.717 182.719 400.551 183.97C396.579 189.108 396.601 189.19 403.788 190.95C405.325 194.573 406.863 198.197 408.4 201.821C409.074 203.161 409.749 204.502 410.424 205.843L410.431 206.707C410.283 209.857 408.686 213.594 413.657 214.67L413.851 214.945L413.46 214.895Z" fill="#C83C2A"/>
<path d="M410.431 206.707C410.431 206.707 410.423 205.843 410.423 205.827C409.748 204.481 409.074 203.151 408.4 201.821C406.862 198.197 405.325 194.573 403.787 190.949C402.708 188.623 401.629 186.297 400.551 183.97C399.717 182.719 398.88 181.468 398.04 180.218C397.299 176.925 396.336 173.686 395.157 170.523C384.546 146.868 373.901 123.227 362.968 99.7199C360.319 94.809 357.355 90.0739 354.096 85.5442C356.448 71.8202 358.37 69.3944 370.834 69.2369C392.983 68.9571 415.141 69.4679 437.296 69.4924C445.824 69.5017 450.783 73.7768 454.094 81.3421C461.833 99.0284 469.961 116.544 477.912 134.138C498.953 180.705 519.996 227.272 541.038 273.839C542.407 276.865 544.06 279.762 545.438 282.442C551.801 282.823 552.049 277.871 553.525 274.653C567.252 244.717 580.721 214.664 594.398 184.705C620.098 128.413 645.994 72.21 671.54 15.8478C676.298 5.35082 683.182 -0.0642031 695.072 0.00057439C746.202 0.278713 797.333 0.156327 848.464 0.255862C849.297 0.257416 850.128 1.21998 852.067 2.41805C847.685 5.4409 843.809 8.36818 839.695 10.9118C814.099 26.7408 788.432 42.4562 762.838 58.289C759.423 60.2623 756.262 62.6465 753.427 65.3885C752.67 66.1701 754.239 69.204 754.75 71.2045C753.213 71.8063 750.939 71.9521 750.232 73.08C741.745 86.624 731.263 99.278 730.027 116.222C728.15 117.21 725.404 117.717 724.544 119.268C720.144 127.201 716.024 135.287 712.181 143.526C662.991 248.945 613.837 354.381 564.721 459.835C563.413 462.979 561.937 466.051 560.301 469.038C553.906 479.622 540.297 479.821 533.794 469.454C532.379 466.994 531.12 464.447 530.023 461.829C493.504 383.061 456.999 304.287 420.509 225.506C419.326 222.952 418.52 220.223 417.538 217.576C416.309 216.7 415.08 215.823 413.851 214.945L413.656 214.671C414.697 211.159 413.215 208.67 410.431 206.707Z" fill="#EE8D2D"/>
<path d="M730.028 116.222C731.264 99.2781 741.745 86.624 750.233 73.08C750.94 71.9521 753.214 71.8064 754.75 71.2046C771.222 71.0771 787.703 70.9176 804.185 70.8524C807.023 70.7832 809.861 71.0007 812.656 71.5016C814.65 71.796 816.482 72.7656 817.847 74.2485C819.212 75.7315 820.027 77.6379 820.155 79.6493C820.511 83.6075 820.658 87.5818 820.594 91.5555C820.613 178.537 820.633 265.518 820.653 352.499C821.001 370.165 817.714 387.713 810.995 404.055C793.623 444.698 762.146 467.363 719.158 473.862C694.663 477.566 670.389 475.698 647.781 463.725C635.636 457.441 624.749 448.98 615.662 438.762C607.707 429.701 607.545 425.081 615.575 416.801C626.654 405.377 637.963 394.178 649.502 383.204C656.434 376.612 660.931 376.548 668.816 383.006C675.639 388.593 682.815 392.294 691.809 392.826C705.811 393.654 715.907 387.817 722.927 376.051C726.454 370.169 728.469 363.505 728.794 356.655C729.11 350.416 729.27 344.169 729.272 337.914C729.411 266.853 729.533 195.791 729.638 124.729C729.643 121.893 729.892 119.058 730.028 116.222Z" fill="#C73B28"/>
<path d="M1053.45 477.515C1059.21 474.891 1061.71 473.756 1064.91 472.297V448.865C1062.55 447.808 1060.1 446.712 1057.65 445.613C1061.39 436.101 1061.4 436.101 1072 433.79C1075.79 445.826 1072.23 458.424 1074.56 471.362C1078.9 473.312 1082.93 479.333 1088.65 476.168C1094.47 472.95 1104.7 477.537 1106.54 465.422C1103.48 464.927 1100.45 464.265 1097.47 463.441C1089.85 460.922 1086.16 456.021 1085.86 448.542C1085.58 441.55 1088.88 435.815 1094.6 433.36C1097.75 432.015 1101.27 431.75 1104.59 432.606C1107.91 433.461 1110.85 435.39 1112.97 438.093C1115.26 441.289 1116.94 444.887 1117.91 448.7C1118.79 453.128 1119.36 457.61 1119.61 462.116C1127.23 456.972 1127.86 456.769 1125.68 449.974C1123.62 443.549 1125.07 438.736 1129.91 434.896C1134.92 430.916 1143.9 431.25 1149.11 435.097C1153.13 438.068 1155.79 442.748 1153.73 446.926C1149.05 456.387 1155.06 462.771 1157.68 470.129C1163.92 465.116 1169.52 460.634 1175.1 456.111C1176.94 454.812 1178.63 453.313 1180.15 451.64C1182.33 448.842 1183.52 445.428 1181.16 442.276C1178.76 439.065 1175.26 439.267 1172.05 441.095C1169.95 442.445 1167.94 443.931 1166.04 445.544C1162.05 442.728 1162.07 439.883 1164.02 437.526C1165.5 435.813 1167.32 434.428 1169.36 433.459C1171.4 432.491 1173.62 431.96 1175.88 431.901C1178.14 431.842 1180.39 432.256 1182.48 433.118C1184.57 433.979 1186.46 435.267 1188.02 436.901C1190.3 439.494 1191.5 442.865 1191.36 446.315C1191.22 449.766 1189.76 453.03 1187.28 455.433C1183.78 459.029 1179.22 461.575 1175.2 464.683C1172.61 466.693 1169.33 468.313 1169.86 472.897C1173.24 474.096 1176.86 474.461 1180.42 473.962C1183.97 473.462 1187.35 472.112 1190.27 470.027C1192.63 476.699 1192.05 479.888 1188.64 480.129C1177.51 480.916 1166.05 483.357 1156.44 475.193C1136.12 485.112 1131.52 484.108 1119.49 467.18C1114.85 467.657 1114.16 472.287 1111.63 474.937C1106.98 479.817 1101.08 482.931 1094.87 480.873C1087.91 478.562 1081.53 481.004 1074.92 480.769C1068.98 480.558 1062.78 481.911 1053.45 477.515ZM1110.01 449.312C1109.67 443.553 1105.56 439.459 1100.41 439.756C1095.85 440.02 1092.72 444.329 1093.39 449.409C1093.49 450.532 1093.81 451.622 1094.34 452.616C1094.87 453.609 1095.6 454.485 1096.48 455.19C1097.36 455.895 1098.37 456.415 1099.46 456.719C1100.54 457.022 1101.68 457.104 1102.79 456.957C1103.78 456.963 1104.75 456.767 1105.66 456.379C1106.57 455.991 1107.39 455.421 1108.06 454.704C1108.74 453.987 1109.26 453.138 1109.59 452.21C1109.93 451.282 1110.07 450.296 1110.01 449.312ZM1147.2 468.863C1147.85 464.721 1144.38 461.013 1138.81 459.893C1137.16 459.469 1135.4 459.716 1133.93 460.58C1132.46 461.444 1131.38 462.855 1130.95 464.506C1129.76 469.421 1132.61 473.401 1137.84 474.141C1142.5 474.8 1146.63 472.469 1147.2 468.863ZM1142.36 452.512C1143.54 450.568 1145.8 448.201 1146.41 445.464C1147.13 442.263 1143.95 439.887 1139.91 439.647C1135.93 439.412 1132.84 441.932 1133.19 445.123C1133.58 447.248 1134.72 449.163 1136.41 450.519C1138.09 451.875 1140.2 452.582 1142.36 452.512Z" fill="#F2A353"/>
<path d="M841.242 601.981C839.547 604.41 838.553 605.701 837.701 607.079C835.005 611.439 830.967 610.569 827.183 609.511C823.282 608.42 822.476 605.039 822.443 601.431C822.381 594.624 822.466 587.811 822.212 581.011C822.04 576.385 821.212 571.646 815.854 570.23C813.372 569.459 810.702 569.545 808.275 570.474C805.847 571.404 803.803 573.122 802.471 575.354C800.302 579.253 798.954 583.553 798.508 587.992C797.78 593.581 798.264 599.316 797.955 604.974C797.724 609.228 796.021 609.867 788.571 608.202C788.436 602.823 788.26 597.224 788.164 591.623C788.077 586.518 788.765 581.28 787.825 576.347C787.056 572.308 784.393 568.63 782.579 564.813C786.933 560.645 791.406 561.197 795.414 563.38C796.787 564.323 798.411 564.835 800.078 564.849C801.744 564.863 803.377 564.379 804.766 563.459C807.253 562.084 809.962 561.16 812.771 560.728C822.162 559.084 829.903 564.126 831.539 573.456C832.508 578.989 832.176 584.742 832.568 590.386C832.659 593.181 833.043 595.958 833.714 598.673C834.691 602.061 839.577 603.059 843.429 600.892C844.863 600.086 846.202 599.113 847.185 598.475C852.066 600.196 857.043 601.635 862.09 602.784C862.788 602.952 863.514 602.96 864.216 602.808C864.917 602.655 865.575 602.346 866.14 601.903C866.705 601.459 867.162 600.894 867.477 600.249C867.792 599.604 867.957 598.897 867.96 598.179C867.891 597.127 867.598 596.101 867.1 595.172C866.602 594.242 865.911 593.43 865.073 592.791C860.774 590.111 855.902 588.362 851.539 585.77C845.484 582.172 842.853 576.965 844.127 571.754C845.465 566.284 849.274 563.338 854.512 561.573C857.747 560.489 861.179 560.12 864.57 560.492C867.962 560.864 871.232 561.968 874.155 563.727C874.9 564.117 875.561 564.652 876.098 565.3C876.635 565.948 877.037 566.696 877.282 567.501C877.546 569.566 877.128 571.661 876.093 573.468C875.451 573.901 874.708 574.163 873.936 574.228C873.164 574.293 872.389 574.16 871.683 573.841C867.578 570.403 863.434 567.788 857.886 569.992C856.938 570.369 855.593 571.235 855.511 571.992C855.201 573.583 855.481 575.232 856.299 576.632C857.9 578.191 859.766 579.453 861.809 580.359C865.315 582.195 869.1 583.546 872.463 585.599C878.425 589.238 880.774 594.374 879.392 599.751C878.761 602.552 877.264 605.083 875.113 606.984C872.962 608.886 870.266 610.061 867.409 610.344C860.702 611.346 850.898 612.129 841.242 601.981Z" fill="#CE5543"/>
<path d="M625.724 563.587C627.673 562.805 629.708 562.256 631.785 561.952C639.449 562.122 641.42 563.719 641.709 570.434C642.001 577.234 641.739 584.057 641.921 590.865C642.028 594.886 642.53 598.968 647.028 600.717C651.431 602.43 658.378 600.823 660.667 596.51C662.981 592.044 664.469 587.198 665.059 582.203C665.483 576.134 665.542 570.044 665.235 563.968C673.075 562.377 674.926 562.934 675.073 566.865C675.348 574.234 675.224 581.616 675.355 588.992C675.325 591.826 675.522 594.658 675.945 597.461C676.62 601.192 681.117 602.864 685.296 601.01C686.825 600.149 688.273 599.152 689.624 598.033C693.183 599.697 696.831 601.163 700.552 602.424C702.728 602.936 705.002 602.838 707.125 602.14C707.868 601.834 708.537 601.372 709.087 600.785C709.636 600.199 710.053 599.501 710.309 598.739C710.507 597.966 710.521 597.157 710.349 596.378C710.178 595.599 709.825 594.871 709.32 594.253C706.106 592.008 702.415 590.465 699.041 588.429C695.549 586.605 692.276 584.388 689.288 581.82C688.221 580.678 687.398 579.331 686.867 577.861C686.336 576.391 686.109 574.828 686.2 573.268C686.291 571.708 686.698 570.182 687.396 568.784C688.095 567.385 689.07 566.143 690.262 565.133C697.48 558.977 710.926 558.404 718.441 565.434C719.323 566.157 719.933 567.158 720.173 568.273C720.44 569.879 720.139 571.528 719.324 572.938C718.719 573.461 718.007 573.844 717.238 574.06C716.469 574.277 715.661 574.322 714.873 574.191C713.37 573.898 712.213 572.138 710.699 571.533C708.252 570.319 705.596 569.581 702.874 569.357C701.83 569.435 700.82 569.763 699.93 570.313C699.04 570.864 698.296 571.622 697.762 572.522C697.655 573.566 697.795 574.621 698.169 575.601C698.544 576.582 699.144 577.461 699.92 578.168C702.26 579.749 704.79 581.03 707.45 581.98C710.057 583.074 712.598 584.32 715.059 585.713C720.802 589.372 723.004 594.401 721.489 600.12C719.843 606.332 715.319 609.468 709.308 610.445C704.912 611.328 700.366 611.121 696.068 609.842C691.77 608.562 687.85 606.25 684.652 603.106C675.742 611.793 675.742 611.794 665.196 606.487C658.439 608.023 652.517 610.178 646.487 610.538C638.681 611.004 633.759 606.434 632.3 598.725C631.804 595.358 631.576 591.958 631.616 588.555C631.236 574.947 631.261 574.947 625.724 563.587Z" fill="#CE5543"/>
<path d="M1036.6 324.679C1036.73 329.297 1034.94 331.621 1031.71 331.237C1028.43 330.848 1025.37 328.84 1022.09 328.139C1011.29 325.834 1002.25 329.493 997.252 338.3C994.674 342.43 993.4 347.241 993.597 352.105C993.793 356.97 995.451 361.662 998.353 365.571C1006.73 377.727 1020.77 377.687 1033.27 365.277C1031.55 361.68 1029.71 357.843 1027.82 353.896C1034.54 351.68 1034.54 351.68 1041.42 353.543C1042.25 360.962 1043.12 368.615 1044.13 377.614C1048.36 375.68 1051.22 374.375 1055.09 372.605C1055.09 359.622 1055.52 346.65 1054.83 333.738C1054.63 330.016 1051.21 326.468 1049.24 322.786C1059.35 319.123 1059.35 319.123 1069.83 322.257C1068.16 326.651 1065.79 330.913 1065.02 335.447C1064.17 340.406 1064.8 345.616 1064.8 350.718C1064.8 355.819 1064.18 361.031 1065.03 365.989C1065.83 370.646 1068.19 375.035 1069.93 379.695C1066.6 384.118 1061.69 382.5 1057.58 382.199C1053.39 381.891 1049.11 378.577 1045.25 379.158C1041.09 379.785 1037.71 382.86 1032.65 380.711C1030.12 379.635 1026.24 381.689 1022.98 382.361C1007.97 385.453 996.188 381.021 988.933 369.539C985.311 363.735 983.502 356.983 983.738 350.145C983.974 343.308 986.243 336.697 990.257 331.156C998.335 320.349 1011.16 315.984 1025.04 319.772C1029.01 321.125 1032.87 322.765 1036.6 324.679Z" fill="#CE5543"/>
<path d="M975.134 567.012C970.482 568.426 965.705 569.878 960.548 571.446C960.35 575.629 960.154 579.53 959.982 583.432C959.617 591.689 959.769 599.66 970.18 602.04C970.445 602.142 970.684 602.301 970.879 602.506C971.074 602.711 971.221 602.958 971.309 603.227C971.592 604.275 972.101 605.65 971.671 606.416C970.929 607.736 969.62 609.557 968.413 609.667C966.296 609.961 964.142 609.824 962.08 609.265C960.018 608.705 958.089 607.735 956.411 606.412C954.733 605.089 953.34 603.44 952.315 601.565C951.291 599.69 950.655 597.627 950.448 595.5C949.69 589.305 949.536 583.051 949.988 576.826C950.269 572.105 946.821 570.069 944.58 566.988C946.475 562.633 948.711 558.349 950.185 553.817C951.214 550.655 952.662 548.838 956.023 549.249C959.825 549.714 959.666 552.875 960.089 555.616C960.26 556.723 960.6 557.803 961.099 559.876C963.627 560.772 967.123 561.246 969.614 563.082C973.049 565.613 975.26 564.262 978.602 563.001C981.943 561.741 986.13 562.725 990.677 562.725C991.515 566.112 992.14 569.548 992.549 573.013C992.919 579.802 992.529 586.642 993.097 593.406C993.662 600.131 998.788 602.866 1005.36 600.719C1007.56 600.127 1009.57 598.95 1011.16 597.312C1012.75 595.673 1013.87 593.635 1014.4 591.413C1015.24 587.552 1015.76 583.628 1015.94 579.681C1016.25 575.161 1016.17 570.616 1016.32 566.084C1016.59 565.096 1016.97 564.141 1017.45 563.236C1019.16 562.944 1021.6 562.526 1024.36 562.053C1027.08 569.567 1025.75 576.387 1025.99 583.045C1026.25 590.285 1025.09 597.58 1030.61 603.894C1032.91 606.522 1029.42 610.582 1025.49 610.086C1023.26 610.028 1021.07 609.441 1019.12 608.375C1017.86 607.239 1016.25 606.578 1014.56 606.507C1012.87 606.435 1011.2 606.957 1009.86 607.983C1008.45 608.949 1006.9 609.672 1005.25 610.121C991.29 613.481 983.5 607.634 982.624 593.073C982.352 588.549 982.507 583.998 982.494 579.46C982.477 573.505 982.494 573.492 975.134 567.012Z" fill="#CE5543"/>
<path d="M545.386 571.377C543.674 570.26 541.655 569.711 539.613 569.807C537.572 569.903 535.612 570.639 534.013 571.911C531.947 573.441 530.243 575.408 529.023 577.67C527.803 579.933 527.096 582.437 526.953 585.004C526.537 591.795 526.797 598.633 526.236 605.407C525.857 609.986 522.635 610.558 518.632 609.039C515.082 604.033 516.971 598.183 516.598 592.663C516.216 587.013 516.438 581.308 515.805 575.694C515.268 570.93 509.993 568.41 505.354 570.273C502.675 571.281 500.34 573.032 498.622 575.32C496.904 577.609 495.875 580.34 495.654 583.193C495.107 587.68 495.315 592.255 495.092 596.787C494.926 600.165 495.288 603.806 494.097 606.806C493.414 608.526 490.098 609.201 486.804 610.972C486.016 608.472 485.415 605.917 485.005 603.328C484.761 599.367 484.906 595.383 484.882 591.408C484.851 586.298 485.527 581.047 484.555 576.122C483.766 572.123 480.996 568.515 479.154 564.834C480.825 563.107 483.045 562.017 485.433 561.751C487.821 561.485 490.226 562.06 492.236 563.377C493.627 564.29 495.261 564.762 496.925 564.732C498.588 564.703 500.204 564.173 501.563 563.213C510.229 558.032 517.843 560.345 524.896 567.339C528.754 565.186 532.735 563.263 536.82 561.58C547.496 557.829 556.493 563.284 557.966 574.295C558.359 578.25 558.492 582.226 558.364 586.199C558.371 592.397 558.183 598.359 562.933 603.595C565.374 606.285 562.383 610.071 558.275 610.149C552.381 610.261 549.097 608.037 548.669 602.936C548.242 597.857 548.507 592.723 548.31 587.62C548.157 583.664 547.929 579.695 547.386 575.78C546.943 574.22 546.269 572.736 545.386 571.377Z" fill="#CE5543"/>
<path d="M970.811 383.758C965.828 381.297 962.263 380.599 960.454 378.434C955.755 372.808 951.873 366.504 947.579 360.533C943.661 355.087 939.629 349.722 934.53 342.806C933.136 346.105 931.813 347.849 931.743 349.641C931.458 356.99 931.729 364.36 931.47 371.711C931.084 382.689 927.883 384.247 915.257 378.968C921.665 372.94 921.883 365.325 921.681 357.41C921.377 345.562 921.602 333.701 921.602 322.45C926.248 318.689 929.919 319.462 932.607 323.102C938.993 331.75 945.035 340.65 951.233 349.437C953.466 353.117 956.416 356.311 959.908 358.829C964.592 345.727 959.503 332.997 963.782 320.795H977.094C976.755 323.378 977.118 325.83 976.243 326.406C971.695 329.405 971.646 333.811 971.653 338.398C971.671 349.72 971.685 361.042 971.613 372.363C971.596 375.107 971.241 377.849 970.811 383.758Z" fill="#CE5543"/>
<path d="M1328.24 379.083C1333.51 374.182 1335.32 368.246 1335.06 360.996C1334.59 348.048 1334.93 335.071 1334.93 322.54C1339.37 318.827 1342.9 319.329 1345.72 323.055C1350.16 328.913 1354.25 335.035 1358.59 340.974C1361.87 345.47 1365.3 349.854 1369.57 355.472C1371.93 352.259 1374.34 350.418 1374.65 348.271C1375.38 343.273 1374.99 338.121 1375.27 333.042C1375.48 329.179 1376.02 325.334 1376.48 320.799H1390.01C1390.87 327.623 1383.64 330.558 1384.89 336.94C1385.96 342.387 1385.16 348.214 1385.09 353.872C1384.97 362.816 1385.51 371.8 1384.68 379.963C1379.44 383.592 1376.09 381.983 1373.47 378.453C1368.76 372.092 1364.29 365.558 1359.72 359.09C1356.17 354.062 1352.63 349.025 1349.4 344.431C1344.31 345.494 1344.98 348.651 1344.82 351.31C1344.23 360.794 1345.91 370.432 1343.41 380.373C1337.69 382.806 1332.64 384.282 1328.22 378.463L1328.24 379.083Z" fill="#CE5543"/>
<path d="M1304.47 381.503H1288.26C1282.8 377.556 1281.22 369.966 1277.55 363.775C1274.53 358.677 1274.58 358.645 1263.82 358.485C1263.38 365.017 1263.4 371.709 1262.33 378.225C1261.63 382.512 1258.19 382.975 1254.28 380.753C1251.88 374.951 1253.39 368.652 1253.08 362.514C1252.85 357.991 1253.03 353.447 1253.03 348.913C1253.02 334.432 1253.02 334.432 1247.95 322.392C1257.47 319.423 1276.24 318.766 1282.59 321.179C1286.84 322.889 1290.27 326.169 1292.16 330.339C1294.06 334.51 1294.28 339.25 1292.77 343.575C1291.96 345.689 1290.89 347.691 1289.58 349.535C1288.35 351.366 1286.77 352.967 1284.6 355.566C1287.43 360.855 1289.97 366.429 1293.3 371.491C1293.72 372.241 1294.28 372.901 1294.96 373.432C1295.63 373.963 1296.41 374.356 1297.24 374.588C1298.07 374.819 1298.93 374.885 1299.79 374.782C1300.64 374.678 1301.46 374.408 1302.21 373.985C1303.35 373.301 1304.33 372.385 1305.09 371.296C1305.85 370.207 1306.37 368.97 1306.61 367.666C1306.73 354.162 1308.75 340.558 1305.32 327.167C1307.01 327.397 1308.56 328.273 1309.62 329.613C1310.69 330.953 1311.2 332.653 1311.04 334.359C1311.13 341.139 1310.74 347.95 1311.25 354.694C1312 364.489 1310.33 373.475 1304.47 381.503ZM1263.41 348.421C1267.1 348.601 1270.79 348.578 1274.48 348.351C1280.61 347.593 1283.58 344.208 1283.7 338.509C1283.82 337.255 1283.69 335.989 1283.32 334.785C1282.95 333.58 1282.34 332.461 1281.54 331.493C1280.73 330.525 1279.74 329.727 1278.62 329.146C1277.5 328.564 1276.28 328.211 1275.02 328.106C1271.15 327.924 1267.26 328.077 1263.41 328.565L1263.41 348.421Z" fill="#CE5543"/>
<path d="M1123.45 356.745V323.617C1128.5 318.703 1133.06 318.921 1138.22 321.834C1136.53 326.471 1134.23 330.8 1133.47 335.384C1132.65 340.354 1133.35 345.564 1133.24 350.666C1133.01 360.739 1133.94 370.874 1132.66 380.293C1127.44 383.378 1124.11 381.947 1121.49 378.281C1115.88 370.446 1110.4 362.514 1104.79 354.681C1101.89 350.635 1098.81 346.716 1094.96 341.603C1091.74 346.661 1093.06 351.155 1092.82 355.27C1092.59 359.226 1092.9 363.213 1092.73 367.175C1092.54 371.604 1092.07 376.02 1091.65 381.349H1078.42C1078.13 379.323 1077.5 377.568 1077.89 377.302C1082.89 373.891 1082.88 368.786 1082.88 363.624C1082.86 352.849 1082.85 342.073 1082.89 331.298C1082.91 328 1083.09 324.702 1083.18 322.004C1088.24 318.825 1091.69 319.724 1094.37 323.499C1100.94 332.74 1107.35 342.102 1113.97 351.301C1115.95 353.756 1118.07 356.094 1120.33 358.301C1121.37 357.783 1122.41 357.264 1123.45 356.745Z" fill="#CE5543"/>
<path d="M1309.34 277.136C1300.79 276.731 1292.74 272.98 1286.93 266.694C1281.12 260.407 1278.01 252.088 1278.28 243.531C1278.55 234.974 1282.17 226.865 1288.36 220.954C1294.55 215.042 1302.82 211.802 1311.38 211.932C1326.96 212.545 1344.16 223.782 1343.07 246.492C1342.93 250.738 1341.93 254.911 1340.15 258.766C1338.36 262.62 1335.82 266.078 1332.68 268.934C1329.53 271.791 1325.85 273.988 1321.84 275.397C1317.83 276.806 1313.58 277.397 1309.34 277.136ZM1333.17 245.061C1333.48 232.009 1324.37 221.812 1311.95 221.316C1308.85 221.189 1305.76 221.692 1302.86 222.795C1299.95 223.897 1297.31 225.577 1295.07 227.731C1292.84 229.886 1291.06 232.471 1289.85 235.331C1288.65 238.191 1288.03 241.266 1288.05 244.37C1288.07 256.81 1297.86 267.902 1309.55 268.716C1321.89 269.575 1332.84 258.609 1333.17 245.061Z" fill="#CE5543"/>
<path d="M1196.58 275.978C1192.57 275.11 1188.95 273.654 1185.36 273.744C1182.12 273.826 1179 275.993 1175.71 276.563C1162.79 278.799 1151.94 274.908 1144.74 263.845C1140.96 258.461 1138.88 252.069 1138.77 245.493C1138.66 238.917 1140.52 232.458 1144.11 226.948C1150.83 215.741 1161.55 211.007 1174.37 212.15C1179.28 212.588 1184.07 214.871 1188.79 216.667C1190.95 217.491 1192.72 219.717 1191.31 221.961C1190.73 222.822 1189.95 223.538 1189.05 224.053C1188.15 224.568 1187.14 224.869 1186.1 224.933C1182.84 224.524 1179.81 222.355 1176.54 221.821C1157.82 218.764 1144.8 234.091 1150.4 252.372C1155.2 268.065 1172.9 273.379 1185.84 263.058C1188.99 260.544 1188.89 258.84 1184.57 251.776C1182.31 248.083 1183.82 245.216 1188.05 244.984C1194.95 244.605 1197.86 246.747 1197.94 253.307C1198.02 260.52 1199.07 267.867 1196.58 275.978Z" fill="#CE5543"/>
<path d="M959.224 277.17C941.183 276.868 927.535 262.7 927.586 244.327C927.57 240.077 928.391 235.866 930.004 231.934C931.616 228.001 933.987 224.426 936.982 221.41C939.977 218.395 943.537 216 947.458 214.361C951.38 212.722 955.585 211.872 959.835 211.86C964.223 211.878 968.563 212.778 972.597 214.505C976.631 216.232 980.277 218.753 983.318 221.916C986.359 225.079 988.734 228.821 990.301 232.92C991.868 237.019 992.596 241.391 992.442 245.776C992.336 250.023 991.391 254.207 989.662 258.087C987.932 261.967 985.453 265.467 982.365 268.385C979.278 271.302 975.644 273.581 971.672 275.089C967.701 276.596 963.47 277.304 959.224 277.17ZM960.55 221.304C949.038 220.421 938.589 229.101 937.27 243.296C936.079 256.122 946.921 268.326 959.324 268.751C971.482 269.168 982.869 257.596 982.714 244.501C982.57 232.342 973.014 220.927 960.55 221.304Z" fill="#CE5543"/>
<path d="M1449.95 325.049C1449.54 329.897 1447.6 331.859 1444.31 331.208C1439.91 330.337 1435.71 328.123 1431.31 327.668C1426.17 327.105 1421.01 328.388 1416.73 331.288C1412.46 334.188 1409.36 338.515 1407.99 343.493C1406.38 348.678 1406.51 354.247 1408.37 359.348C1410.23 364.449 1413.71 368.801 1418.27 371.738C1420.42 373.137 1422.83 374.099 1425.35 374.567C1427.88 375.034 1430.47 374.999 1432.98 374.463C1438.5 373.186 1443.87 371.305 1446.5 364.501C1444.78 361.563 1442.89 358.327 1440.77 354.712C1442.48 353.413 1443.64 351.775 1444.92 351.676C1453.54 351.006 1455.64 352.564 1455.92 360.236C1456.17 366.963 1455.84 373.711 1455.75 381.831C1450.99 381.069 1447.43 379.927 1443.95 380.108C1440.66 380.28 1437.49 382.108 1434.17 382.748C1416.93 386.075 1402.48 376.833 1398.03 359.787C1393.76 343.415 1402.07 326.278 1417.15 320.679C1428.61 316.424 1439.41 317.946 1449.95 325.049Z" fill="#CE5543"/>
<path d="M1246.38 214.295C1246.84 217.029 1247.06 219.797 1247.05 222.569C1246.54 227.004 1243.05 228.964 1240.24 225.935C1234.42 219.649 1228.09 222.095 1220.76 222.551V238.491C1225.67 239.001 1230.06 239.59 1234.47 239.87C1237.51 240.063 1240.58 240.704 1240.89 243.998C1241.21 247.43 1238.29 248.495 1235.21 248.655C1230.76 248.886 1226.31 249.153 1221.32 249.434C1219.58 254.317 1219.37 259.617 1220.73 264.621C1230.14 272.388 1238.58 265.941 1247.47 261.726C1250.87 266.617 1250.93 270.489 1247.28 275.268C1235.62 276.934 1223.79 276.915 1212.13 275.21C1211.19 271.964 1210.5 268.645 1210.1 265.287C1209.79 257.926 1209.99 250.543 1209.97 243.169C1209.95 238.065 1210.53 232.853 1209.68 227.89C1208.98 223.863 1206.56 220.133 1204.41 215.132C1218.4 211.705 1231.58 213.186 1246.38 214.295Z" fill="#CE5543"/>
<path d="M43.7269 591.256H22.748C20.3996 595.914 18.1117 600.944 15.3859 605.724C12.6186 610.577 9.5326 610.75 2.7561 606.663C12.0687 588.758 17.8568 569.382 25.1801 550.604C25.7865 549.023 26.5438 547.505 27.4416 546.069C28.088 545.148 28.9484 544.398 29.9489 543.882C30.9493 543.367 32.0599 543.102 33.1852 543.111C34.3105 543.119 35.4169 543.401 36.4094 543.932C37.4018 544.462 38.2507 545.226 38.8829 546.157C40.4887 549.137 41.8551 552.241 42.9693 555.438C47.3898 567.076 51.5659 578.811 56.1655 590.378C57.8034 594.496 60.6627 598.121 62.408 602.209C62.819 603.183 63.0252 604.231 63.0137 605.289C63.0023 606.346 62.7734 607.39 62.3414 608.356C60.55 611.251 57.0581 610.607 54.8081 609.127C52.605 607.415 50.8087 605.236 49.5486 602.747C47.3311 598.945 45.5429 594.894 43.7269 591.256ZM42.8059 582.042L33.5873 557.239C29.0658 565.981 26.0909 573.147 25.0941 582.042H42.8059Z" fill="#CE5543"/>
<path d="M192.711 592.465C185.025 590.066 177.864 590.739 170.094 591.764C168.383 595.927 166.446 599.994 164.293 603.946C162.869 606.319 160.796 608.235 158.318 609.468C156.759 610.173 153.991 609.279 152.317 608.223C151.814 607.602 151.479 606.863 151.344 606.075C151.209 605.287 151.279 604.478 151.547 603.725C160.749 588.631 164.507 571.331 171.404 555.318C172.592 552.153 173.959 549.058 175.499 546.048C177.74 542.145 184.742 542.182 187.012 546.071C188.336 548.559 189.451 551.153 190.344 553.825C194.527 564.926 198.468 576.123 202.883 587.129C204.947 592.277 208.095 596.983 210.319 602.077C211.088 603.838 211.272 607.559 210.473 607.973C208.143 609.184 205.475 609.579 202.894 609.094C201.09 608.657 199.375 606.373 198.35 604.509C196.205 600.612 194.541 596.449 192.711 592.465ZM180.056 558.356C177.223 566.632 174.718 573.95 172.1 581.601C178.567 583.152 183.818 584.154 189.408 580.646C187.311 572.655 185.912 565.164 180.056 558.356Z" fill="#CE5543"/>
<path d="M1095.68 274.932C1095.54 264.912 1095.39 256.459 1095.31 248.005C1095.25 242.321 1094.51 236.497 1095.49 230.99C1096.62 224.688 1090.17 221.508 1089.56 216.681C1091.42 215.189 1092.24 213.964 1093.09 213.943C1103.86 213.667 1114.64 213.326 1125.4 213.52C1130.69 213.615 1132.98 217.362 1132.2 223.071C1131.78 226.19 1127.89 228.626 1126.13 226.515C1120.79 220.118 1114.3 221.432 1107.73 222.436C1103.39 226.988 1105.83 232.096 1105.5 237.032C1106.97 238.049 1108.58 238.852 1110.28 239.419C1114.73 240.115 1119.32 240.091 1123.67 241.117C1124.93 241.416 1125.59 244.294 1127.23 247.269C1119.62 248.162 1113.6 248.866 1107.68 249.561C1105.29 257.048 1105.15 257.049 1107.08 266.625C1113.28 268.12 1119.76 269.779 1125.81 264.907C1128.24 262.949 1131.12 261.402 1133.14 263.762C1134.61 265.483 1134.26 268.909 1134.35 271.588C1134.39 272.537 1133.32 273.523 1132.23 275.407C1120.09 276.968 1107.78 276.808 1095.68 274.932Z" fill="#CE5543"/>
<path d="M381.656 565.326C383.158 564.43 384.719 563.638 386.329 562.957C403.651 556.966 412.306 562.854 413.179 581.19C413.286 583.453 413.241 585.725 413.203 587.992C413.107 593.648 413.088 598.985 417.581 603.692C420.085 606.315 417.103 610.126 412.98 610.168C405.961 610.24 403.354 608.168 403.1 601.636C402.813 594.276 403.285 586.873 402.734 579.54C402.061 570.592 394.505 567.035 386.962 571.732C384.735 573.012 382.869 574.835 381.536 577.031C380.203 579.226 379.447 581.724 379.339 584.29C379.029 589.944 379.168 595.621 378.9 601.278C378.905 603.514 378.442 605.727 377.541 607.773C377.049 608.396 376.419 608.895 375.7 609.231C374.982 609.568 374.195 609.732 373.402 609.712C372.05 609.62 369.753 608.23 369.661 607.243C369.086 601.067 368.866 594.846 368.803 588.638C368.672 575.624 368.743 575.624 363.405 564.618C369.774 558.478 375.757 564.045 381.656 565.326Z" fill="#CE5543"/>
<path d="M921.724 265.968C908.564 278.483 892.483 280.627 879.51 272.244C867.342 264.382 862.304 247.661 867.044 233.026C872.114 217.373 893.309 204.365 914.859 216.842C917.136 218.474 918.958 220.66 920.155 223.193C921.527 225.662 922.238 228.84 919.435 230.847C918.895 231.317 918.252 231.652 917.557 231.826C916.863 232 916.138 232.008 915.44 231.848C914.743 231.689 914.092 231.367 913.543 230.909C912.993 230.45 912.559 229.869 912.277 229.211C907.763 219.817 899.534 220.755 891.732 222.018C883.784 223.304 878.952 228.91 876.545 236.478C874.972 240.778 874.681 245.442 875.707 249.904C876.733 254.366 879.031 258.434 882.324 261.616C889.36 268.79 897.935 270.29 907.321 266.301C910.296 264.767 913.438 263.581 916.684 262.766C918.087 262.53 919.902 264.738 921.724 265.968Z" fill="#CE5543"/>
<path d="M1186.37 321.458C1189.22 325.566 1189.46 329.524 1185.74 333.314C1174.77 327.957 1174.77 327.957 1163.58 328.466C1159.76 333.417 1161.02 338.84 1162.46 345.485C1167.92 345.934 1173.4 346.342 1178.86 346.858C1180.74 347.036 1181.17 348.304 1181.38 354.282C1175.35 354.628 1169.28 354.976 1163.27 355.32C1159.98 361.055 1160.99 366.508 1162.47 373.024C1169.88 374.583 1177.15 376.932 1183.8 369.866C1184.69 368.921 1188.48 369.289 1189.64 370.398C1190.3 371.251 1190.77 372.236 1191.02 373.287C1191.27 374.338 1191.29 375.43 1191.07 376.488C1190.42 378.552 1189.09 380.336 1187.29 381.55C1185.77 382.308 1184.05 382.585 1182.37 382.344C1172.87 381.957 1163.24 383.643 1153.14 380.93C1152.34 377.712 1151.76 374.443 1151.41 371.145C1151.14 364.364 1151.57 357.553 1151.25 350.776C1150.79 341.113 1154.28 330.78 1144.91 322.738C1157.83 319.055 1170.86 318.805 1186.37 321.458Z" fill="#CE5543"/>
<path d="M882.662 373.09C891.844 375.695 899.088 374.796 905.732 369.122C907.268 367.809 910.155 369.337 910.974 371.848C912.65 376.993 910.204 381.928 905.434 382.083C894.825 382.429 884.13 383.444 872.893 381.03C872.209 377.627 871.73 374.186 871.458 370.726C871.275 360.526 871.427 350.321 871.36 340.118C871.306 331.943 871.249 331.943 866.074 322.969C867.291 322.028 868.528 320.243 869.809 320.211C880.561 319.943 891.325 319.794 902.076 320.039C907.301 320.159 909.33 323.808 908.269 329.77C907.707 332.923 904.06 334.946 902.111 332.675C896.764 326.443 890.259 327.496 883.395 328.491C879.616 333.692 881.821 339.182 882.018 345.457C887.761 345.673 893.489 346.204 899.174 347.048C902.218 347.651 903.401 350.452 900.568 354.436C895.193 354.72 889.141 355.039 883.043 355.362C880.36 361.406 880.928 366.844 882.662 373.09Z" fill="#CE5543"/>
<path d="M1239.19 381.891H1204.12C1203.04 378.732 1202.29 375.474 1201.87 372.165C1201.59 361.428 1201.8 350.679 1201.72 339.935C1201.66 331.701 1201.59 331.701 1196.12 323.423C1198.78 318.122 1203.81 320.076 1207.97 319.827C1213.04 319.522 1218.15 319.634 1223.23 319.79C1227.67 319.927 1232.1 320.374 1237.16 320.728C1237.89 323.532 1238.34 326.4 1238.5 329.291C1238.51 329.995 1238.33 330.689 1237.99 331.307C1237.66 331.925 1237.17 332.447 1236.57 332.823C1235.98 333.2 1235.3 333.419 1234.59 333.46C1233.89 333.501 1233.19 333.363 1232.55 333.058C1222.13 327.899 1222.14 327.789 1214 328.313C1209.98 333.188 1211.51 338.618 1212.33 343.403C1218.18 349.934 1227.77 342.395 1232.36 350.314C1232.57 350.681 1232.19 351.392 1231.84 353.204C1226.68 356.85 1219.28 353.232 1212.63 356.274C1210.93 361.839 1211.09 367.807 1213.08 373.273C1220.62 374.585 1227.85 376.516 1234.49 369.595C1237 366.974 1241.4 369.722 1241.31 373.761C1240.91 376.543 1240.2 379.271 1239.19 381.891Z" fill="#CE5543"/>
<path d="M123.138 606.961C111.214 611.963 107.48 610.052 107.103 599.397C106.864 592.621 107.245 585.811 106.745 579.061C106.095 570.3 98.3195 566.953 90.868 571.939C88.4847 573.487 86.5256 575.605 85.1682 578.101C83.8108 580.598 83.0981 583.394 83.0949 586.236C82.9415 590.187 83.0548 594.149 82.9273 598.103C82.8205 601.414 82.5379 604.72 82.3485 607.78C75.084 609.681 73.3763 609.23 73.2237 605.182C72.9045 596.717 73.1653 588.227 72.7324 579.77C72.6722 576.523 71.7602 573.35 70.0878 570.566C68.4344 568.156 65.9639 566.176 68.4438 563.584C69.3152 562.913 70.3153 562.428 71.382 562.16C72.4487 561.892 73.5591 561.847 74.6442 562.026C78.2134 562.886 81.7072 564.034 85.0911 565.458C88.7168 563.71 92.4724 562.246 96.3242 561.077C107.228 558.463 115.338 564.274 116.868 575.349C117.058 577.034 117.143 578.729 117.123 580.425C117.189 585.511 116.478 590.749 117.483 595.639C118.297 599.606 121.151 603.154 123.138 606.961Z" fill="#CE5543"/>
<path d="M212.811 562.84H226.77C227.965 564.755 229.012 565.664 229.051 566.614C229.372 574.533 229.396 582.465 229.735 590.383C230.02 597.048 232.017 600.286 236.069 601.022C241.549 602.017 246.618 600.726 249.299 595.733C251.369 591.763 252.659 587.434 253.1 582.979C253.728 576.822 253.259 570.552 253.259 563.456C256.262 562.988 258.756 562.599 260.888 562.266C261.957 563.991 262.994 564.896 263.022 565.83C263.243 573.195 263.306 580.565 263.348 587.934C263.38 593.553 263.039 598.946 267.727 603.615C270.301 606.177 267.166 610.378 263.23 610.156C261.547 610.062 259.402 610.424 258.276 609.543C253.687 605.954 249.582 606.075 244.566 609.041C241.882 610.629 238.029 610.691 234.71 610.665C226.896 610.602 221.813 606.523 220.362 598.853C219.734 594.368 219.474 589.839 219.587 585.311C219.359 574.699 219.406 574.698 212.811 562.84Z" fill="#CE5543"/>
<path d="M357.16 586.158C357.147 589.547 356.442 592.897 355.089 596.003C353.735 599.109 351.762 601.906 349.289 604.223C346.816 606.54 343.897 608.327 340.709 609.476C337.521 610.624 334.133 611.11 330.751 610.902C316.809 610.11 305.943 599.879 305.707 586.256C305.714 579.395 308.429 572.814 313.262 567.943C318.094 563.073 324.654 560.307 331.515 560.246C334.911 560.224 338.278 560.881 341.417 562.179C344.556 563.477 347.404 565.389 349.793 567.803C352.182 570.217 354.065 573.085 355.33 576.237C356.595 579.389 357.217 582.762 357.16 586.158ZM347.113 586.708C347.496 577.109 341.184 569.756 332.257 569.4C330.126 569.298 327.997 569.626 325.995 570.364C323.994 571.102 322.161 572.234 320.606 573.695C319.052 575.155 317.806 576.914 316.945 578.865C316.083 580.816 315.623 582.921 315.591 585.054C315.197 593.706 322.349 602.087 330.727 602.789C339.037 603.486 346.746 595.921 347.113 586.708Z" fill="#CE5543"/>
<path d="M474.744 585.041C475.213 599.513 464.213 610.189 449.272 610.915C442.729 611.157 436.351 608.83 431.502 604.431C426.653 600.031 423.718 593.909 423.325 587.374C423.114 583.982 423.581 580.583 424.7 577.375C425.818 574.167 427.566 571.214 429.84 568.689C432.114 566.165 434.869 564.119 437.943 562.673C441.017 561.226 444.35 560.408 447.744 560.265C454.598 560.016 461.274 562.476 466.328 567.113C471.381 571.75 474.404 578.191 474.744 585.041ZM433.427 585.733C433.385 595.236 440.227 602.848 448.797 602.832C457.224 602.817 464.767 594.894 464.779 586.049C464.791 576.534 458.188 569.475 449.171 569.362C439.996 569.248 433.47 576.034 433.427 585.733Z" fill="#CE5543"/>
<path d="M596.187 560.245C610.551 560.75 622.199 572.828 621.399 586.776C620.525 602.015 608.524 611.669 594.227 610.86C579.49 610.027 569.2 598.868 570.102 583.943C570.542 577.387 573.505 571.256 578.369 566.837C583.232 562.419 589.618 560.056 596.187 560.245ZM580.14 585.891C580.168 595.357 587.145 602.979 595.659 602.843C604.11 602.708 611.542 594.747 611.483 585.893C611.421 576.441 604.711 569.408 595.718 569.368C586.553 569.327 580.111 576.159 580.14 585.891Z" fill="#CE5543"/>
<path d="M1385.76 227.834C1379.77 224.702 1374.08 218.448 1366.35 223.019C1364.3 230.943 1364.3 230.943 1366.09 238.966C1371.28 244.235 1380.03 237.464 1384.58 244.597C1384.82 244.962 1384.51 245.671 1384.39 246.908C1379.39 252.188 1371.4 246.767 1365 251.676C1364.56 258.183 1364.39 265.472 1363.46 272.665C1363.01 276.164 1359.96 276.499 1355.8 275.008C1355.21 273.219 1354.81 271.37 1354.62 269.493C1354.46 259.264 1354.51 249.031 1354.48 238.8C1354.44 227.156 1354.43 227.156 1348.93 215.813C1350.86 214.996 1352.73 213.562 1354.63 213.513C1363.71 213.278 1372.82 213.084 1381.89 213.534C1388.95 213.885 1390.21 218.251 1385.76 227.834Z" fill="#CE5543"/>
<path d="M1080.62 587.783C1085.2 603.258 1088.42 604.389 1108.46 599.212C1110.89 601.286 1112.32 604.076 1109.33 606.192C1104.68 609.456 1099.11 611.152 1093.43 611.033C1087.75 610.914 1082.25 608.986 1077.74 605.53C1073.63 602.004 1070.72 597.288 1069.41 592.034C1068.09 586.78 1068.44 581.247 1070.41 576.201C1074.35 565.454 1085.25 558.789 1095.78 560.688C1107.69 562.838 1112.92 570.821 1111.96 586.493C1102.03 586.902 1091.97 587.315 1080.62 587.783ZM1102.99 579.382C1101.21 571.742 1097.77 568.74 1091.87 569.013C1085.73 569.298 1081.42 571.885 1080.83 579.382H1102.99Z" fill="#CE5543"/>
<path d="M354.096 85.5443C357.355 90.0739 360.318 94.809 362.968 99.7199C373.901 123.227 384.546 146.868 395.157 170.523C396.336 173.686 397.299 176.925 398.04 180.218C393.826 180.744 390.186 179.724 387.888 175.901C373.493 151.956 359.125 127.995 344.782 104.019C347.887 97.8604 350.991 91.7021 354.096 85.5443Z" fill="#C73B28"/>
<path d="M1014.13 266.388C1022.32 268.302 1028.23 269.187 1033.7 264.419C1034.55 263.832 1035.53 263.465 1036.56 263.352C1037.58 263.239 1038.62 263.384 1039.57 263.773C1040.95 264.768 1041.46 267.591 1041.53 269.647C1041.61 271.062 1041.19 272.46 1040.32 273.586C1039.46 274.711 1038.22 275.487 1036.83 275.771C1036.3 275.967 1035.75 276.089 1035.18 276.136C1025.66 276.159 1016.14 276.153 1005.8 276.153C1004.78 272.788 1004.05 269.34 1003.63 265.849C1003.37 255.129 1003.48 244.399 1003.52 233.673C1003.53 228.605 1003.68 223.834 999.093 219.93C996.759 217.942 998.71 214.236 1001.75 213.72C1009.21 212.449 1013.06 214.953 1013.29 221.873C1013.59 230.896 1013.34 239.936 1013.47 248.966C1013.54 254.516 1013.88 260.063 1014.13 266.388Z" fill="#CE5543"/>
<path d="M763.833 610.222C763.851 610.224 761.583 610.123 759.347 609.797C756.419 609.37 754.163 605.366 756.245 603.485C762.117 598.181 761.461 591.542 761.4 584.839C761.338 578.025 761.384 571.21 761.384 564.396C761.384 559.341 761.733 554.591 756.607 550.834C753.774 548.758 756.271 543.837 759.942 543.391C762.193 543.132 764.457 543.003 766.723 543.005C777.405 542.947 777.702 543.602 773.147 553.553C772.064 556.098 771.503 558.833 771.495 561.599C771.308 571.817 771.4 582.04 771.43 592.261C771.313 595.609 772.47 598.877 774.668 601.405C778.879 606.501 777.179 609.849 771.227 610.207C769.53 610.308 767.821 610.222 763.833 610.222Z" fill="#CE5543"/>
<path d="M1058.98 217.843V265.616C1068.82 270.668 1076.28 266.639 1083.65 261.74C1088.01 266.356 1087.55 270.259 1085.08 274.243C1081.45 277.123 1068.62 277.309 1050.78 274.732C1049.82 271.733 1049.15 268.646 1048.8 265.515C1048.54 254.181 1048.74 242.837 1048.62 231.499C1048.59 228.728 1048.75 225.546 1047.49 223.302C1045.98 220.623 1041.19 218.877 1044.47 215.173C1047.45 211.799 1051.76 213.141 1055.51 214.794C1056.75 215.721 1057.91 216.74 1058.98 217.843Z" fill="#CE5543"/>
<path d="M300.298 568.083C296.451 569.197 293.76 569.931 291.108 570.788C290.65 570.936 290.361 571.605 288.857 573.36C288.857 577.008 288.869 581.994 288.855 586.981C288.836 593.612 290.152 599.341 297.801 601.224C298.82 601.65 299.636 602.454 300.078 603.466C300.345 603.942 300.51 604.467 300.565 605.009C300.62 605.551 300.562 606.099 300.396 606.617C299.609 607.893 298.241 609.603 297.017 609.687C288.137 610.297 281.333 605.583 279.799 597.027C278.928 590.9 278.575 584.71 278.745 578.523C278.709 573.795 277.938 569.654 273.249 567.862C275.631 561.949 277.495 556.887 279.753 552.008C280.349 550.721 282.347 549.026 283.37 549.224C285.194 549.578 288.121 551.13 288.214 552.359C288.664 558.35 291.545 561.412 297.271 562.798C298.52 563.1 299.148 565.964 300.298 568.083Z" fill="#CE5543"/>
<path d="M919.346 565.64C915.359 564.119 913.292 567.531 910.382 568.945C907.51 570.001 904.546 570.788 901.529 571.297C901.529 577.347 901.596 582.939 901.511 588.53C901.416 594.817 903.136 599.699 910.168 601.124C911.222 601.504 912.083 602.286 912.564 603.298C912.832 603.781 912.998 604.314 913.051 604.864C913.104 605.414 913.043 605.968 912.872 606.493C912.134 607.808 910.879 609.543 909.627 609.742C905.363 610.199 901.091 608.947 897.749 606.26C894.407 603.573 892.266 599.67 891.796 595.407C891.304 589.19 891.209 582.948 891.513 576.719C891.816 571.921 888.284 570.076 885.418 566.721C886.133 561.625 893.148 558.917 892.202 552.531C892.069 551.633 895.413 549.189 896.932 549.361C898.523 549.541 900.305 551.789 901.178 553.544C901.908 555.568 902.366 557.681 902.539 559.826C907.898 562.155 912.819 564.322 917.778 566.397C918.177 566.563 918.84 566.096 919.379 565.918L919.346 565.64Z" fill="#CE5543"/>
<path d="M1051.81 571.284C1051.81 575.966 1051.94 580.982 1051.78 585.99C1051.56 593.265 1052.5 599.545 1061.22 601.604C1062.27 601.853 1063.54 605.727 1062.94 607.186C1062.35 608.034 1061.55 608.721 1060.63 609.185C1059.71 609.649 1058.68 609.875 1057.65 609.843C1047.42 608.214 1042.7 603.149 1041.88 593.091C1041.34 588.034 1041.33 582.934 1041.84 577.874C1042.54 572.48 1039.05 569.891 1035.64 566.265C1037.44 561.476 1043.29 558.266 1042.54 552.007C1042.45 551.225 1044.8 549.563 1046.18 549.361C1047.56 549.159 1050.42 550.281 1050.42 550.818C1050.4 558.894 1056.19 561.689 1062.14 564.559C1062.56 564.765 1062.19 566.624 1062.19 568.32C1059.26 569.158 1056.11 570.057 1051.81 571.284Z" fill="#CE5543"/>
<path d="M888.592 481.297C882.573 481.391 877.561 480.662 873.89 476.419C873.588 475.972 873.391 475.462 873.315 474.928C873.238 474.394 873.285 473.85 873.45 473.336C873.795 472.494 875.176 471.38 875.903 471.509C879.737 472.188 883.479 473.694 887.312 473.923C888.381 473.823 889.411 473.469 890.315 472.891C891.22 472.312 891.973 471.526 892.512 470.597C892.856 469.596 892.949 468.526 892.782 467.481C892.615 466.436 892.193 465.447 891.555 464.603C888.001 461.853 884.293 459.306 880.451 456.975C873.427 452.07 871.004 446.83 873.11 441.442C875.619 435.026 881.857 431.372 889.653 432.339C892.461 432.587 895.131 433.666 897.323 435.438C899.071 437.091 900.825 440.718 900.133 442.553C898.761 446.186 896.169 444.481 893.583 442.57C891.285 441.084 888.647 440.205 885.916 440.016C885.109 440.109 884.335 440.394 883.661 440.848C882.987 441.302 882.433 441.911 882.043 442.625C881.741 443.385 881.62 444.206 881.69 445.022C881.761 445.837 882.02 446.625 882.449 447.322C884.372 449.366 886.565 451.138 888.968 452.587C891.801 454.458 895.022 455.777 897.722 457.804C899.606 459.114 901.061 460.951 901.907 463.084C902.752 465.217 902.95 467.551 902.475 469.796C902.12 472.347 901.018 474.737 899.308 476.663C897.598 478.59 895.356 479.967 892.865 480.623C891.465 480.978 890.034 481.203 888.592 481.297Z" fill="#F2A353"/>
<path d="M925.4 447.947C932.277 447.122 938.317 446.345 944.37 445.683C952.599 444.783 957.341 448.317 958.457 456.584C959.421 463.727 959.929 470.931 960.661 478.335C954.099 480.974 951.426 479.963 950.624 474.098C949.722 467.51 951.972 460.515 947.775 453.437C945.353 453.827 942.238 453.494 940.349 454.859C938.201 456.611 936.736 459.062 936.21 461.784C935.295 466.743 935.522 471.904 934.788 476.91C934.496 477.648 934.021 478.299 933.407 478.802C932.794 479.305 932.062 479.643 931.281 479.785C930.136 479.811 928.524 478.143 927.893 476.845C927.367 475.245 927.131 473.563 927.196 471.88C926.6 464.193 926.039 456.502 925.4 447.947Z" fill="#F2A353"/>
<path d="M919.345 565.64L919.379 565.918C922.708 559.293 927.494 562.545 932.844 564.016C933.23 567.218 933.863 570.467 933.963 573.734C934.152 579.919 933.39 586.203 934.24 592.276C934.964 597.455 937.394 602.396 939.052 607.39C934.485 611.226 930.506 610.293 926.037 607.147C923.674 599.837 925.036 591.918 924.96 584.154C924.893 577.313 924.55 570.809 919.345 565.64Z" fill="#C83C2A"/>
<path d="M1011.03 465.397C1009.26 471.09 1011.86 473.761 1016.4 474.17C1020.68 474.284 1024.97 474.09 1029.23 473.589C1029.7 478.16 1027.16 479.591 1024.49 480.384C1019.62 482.066 1014.3 481.789 1009.63 479.612C1001.74 475.709 998.265 465.73 1001.39 456.114C1002.57 452.606 1004.97 449.634 1008.14 447.725C1011.31 445.816 1015.06 445.094 1018.72 445.687C1022.01 446.325 1025.06 447.854 1027.54 450.107C1029.35 451.714 1030.57 453.872 1031.02 456.245C1031.48 458.618 1031.13 461.075 1030.05 463.234C1023.9 463.933 1017.37 464.676 1011.03 465.397ZM1022.7 459.07C1023.62 453.162 1020.24 451.164 1016.14 451.384C1012.39 451.584 1008.58 453.267 1010.01 459.07H1022.7Z" fill="#F2A353"/>
<path d="M1304.47 381.503C1310.33 373.476 1312 364.489 1311.25 354.694C1310.74 347.95 1311.13 341.139 1311.04 334.359C1311.2 332.653 1310.69 330.953 1309.62 329.613C1308.56 328.273 1307.01 327.397 1305.32 327.167C1304.12 326.227 1302.18 325.432 1301.96 324.303C1301.76 323.292 1303.41 320.917 1304.34 320.859C1309.78 320.524 1315.25 320.695 1322.43 320.695C1321.15 323.868 1320.93 326.365 1319.63 327.246C1316.23 329.542 1316.13 332.758 1316.11 336.102C1316.05 345.648 1316.25 355.199 1316.03 364.74C1315.86 372.438 1319.74 376.909 1326.59 379.361C1327.04 379.524 1327.68 379.188 1328.23 379.084L1328.22 378.463C1327.14 378.148 1325.4 377.237 1325.07 377.603C1319.14 384.15 1311.72 382.29 1304.47 381.503Z" fill="#C83C2A"/>
<path d="M995.961 473.129C995.646 479.438 991.478 480.215 987.735 480.923C985.26 481.528 982.684 481.602 980.177 481.14C977.671 480.678 975.291 479.69 973.193 478.242C969.554 475.501 967.037 471.527 966.115 467.065C965.192 462.603 965.927 457.958 968.181 453.999C972.406 446.184 983.407 442.956 991.79 447.45C993.593 448.746 994.909 450.609 995.527 452.741C995.802 453.511 993.672 456.186 993.037 456.055C990.37 455.507 987.928 453.914 985.266 453.275C979.821 451.969 975.434 455.1 974.168 460.821C972.794 467.03 976.061 473.363 981.405 474.066C984.185 474.157 986.968 473.973 989.712 473.516C991.718 473.37 993.727 473.266 995.961 473.129Z" fill="#F2A353"/>
<path d="M919.958 479.626C911.893 479.532 910.609 478.798 910.2 473.692C909.54 465.458 909.061 457.209 908.43 447.835C910.176 447.316 912 447.111 913.818 447.228C916.957 447.886 918.017 450.689 918.232 453.634C918.833 461.876 919.335 470.126 919.958 479.626Z" fill="#F2A353"/>
<path d="M934.998 550.614C931.529 551.673 929.574 552.875 927.768 552.682C924.997 552.385 924.565 549.867 924.968 547.485C925.38 545.053 926.925 542.606 929.37 543.694C931.355 544.576 932.488 547.376 934.998 550.614Z" fill="#CE5543"/>
<path d="M918.328 436.72C916.805 438.167 915.857 439.841 914.656 440.048C914.144 440.19 913.601 440.187 913.091 440.038C912.58 439.889 912.121 439.6 911.766 439.204C911.41 438.808 911.173 438.32 911.08 437.796C910.987 437.272 911.042 436.733 911.239 436.238C911.531 435.589 911.984 435.024 912.554 434.598C913.124 434.171 913.794 433.896 914.499 433.8C915.66 433.845 916.761 435.442 918.328 436.72Z" fill="#F2A353"/>
<path d="M413.851 214.945C415.08 215.823 416.309 216.7 417.538 217.577C416.183 216.685 414.825 215.794 413.466 214.901L413.851 214.945Z" fill="#F2A353"/>
<path d="M400.551 183.97C401.63 186.297 402.709 188.623 403.788 190.949C396.601 189.19 396.579 189.108 400.551 183.97Z" fill="#C73B28"/>
<path d="M410.431 206.707C413.215 208.67 414.697 211.159 413.656 214.671C408.685 213.594 410.283 209.857 410.431 206.707Z" fill="#F2A353"/>
<path d="M408.399 201.821C409.073 203.151 409.748 204.481 410.422 205.827C409.748 204.502 409.074 203.161 408.399 201.821Z" fill="#F2A353"/>
</svg>
