<?xml version="1.0" standalone="no"?>
<!DOCTYPE svg PUBLIC "-//W3C//DTD SVG 20010904//EN"
 "http://www.w3.org/TR/2001/REC-SVG-20010904/DTD/svg10.dtd">
<svg version="1.0" xmlns="http://www.w3.org/2000/svg"
 width="300.000000pt" height="300.000000pt" viewBox="0 0 300.000000 300.000000"
 preserveAspectRatio="xMidYMid meet">
<metadata>
Created by potrace 1.14, written by Peter Selinger 2001-2017
</metadata>
<g transform="translate(0.000000,300.000000) scale(0.100000,-0.100000)"
fill="#000000" stroke="none">
<path d="M275 2544 c9 -14 31 -51 47 -83 17 -31 39 -68 50 -83 10 -14 18 -28
18 -31 0 -3 44 -81 98 -174 54 -92 101 -175 105 -183 4 -8 15 -28 26 -45 10
-16 28 -47 40 -67 31 -55 45 -80 188 -328 371 -645 483 -840 511 -886 16 -28
45 -78 63 -110 17 -33 42 -74 54 -92 24 -35 25 -34 51 13 29 53 412 720 651
1133 68 118 123 218 123 223 0 5 5 9 10 9 6 0 10 4 10 8 0 7 359 638 404 710
6 10 -41 12 -219 10 l-227 -3 -110 -190 c-61 -104 -120 -206 -130 -225 -11
-19 -53 -91 -93 -160 -40 -69 -82 -141 -93 -160 -10 -19 -59 -102 -107 -185
-48 -82 -95 -163 -105 -180 -108 -192 -136 -237 -144 -239 -4 0 -18 17 -31 39
-97 173 -460 814 -633 1118 l-106 187 -234 0 -234 0 17 -26z"/>
<path d="M1610 2563 c0 -5 23 -45 50 -91 28 -46 50 -85 50 -87 0 -3 27 -50 60
-106 33 -55 60 -103 60 -105 0 -2 14 -27 31 -54 l31 -51 44 77 c24 42 44 80
44 85 0 5 4 9 9 9 5 0 14 12 20 28 7 15 17 36 24 47 7 11 34 58 61 105 27 47
57 100 68 118 l20 32 -286 0 c-157 0 -286 -3 -286 -7z"/>
<path d="M2424 1863 c-9 -15 -28 -45 -41 -65 -12 -21 -23 -40 -23 -42 0 -2
-29 -54 -65 -115 -36 -61 -68 -117 -71 -125 -3 -9 55 -122 139 -268 80 -139
154 -269 165 -288 10 -19 34 -60 52 -90 18 -30 46 -80 63 -110 17 -30 38 -66
47 -80 9 -14 21 -34 26 -45 6 -13 10 124 12 368 l2 388 -101 177 c-110 190
-128 222 -160 280 -12 20 -23 39 -24 40 -2 2 -11 -9 -21 -25z"/>
</g>
</svg>
